<svg id="Layer_1" data-name="Layer 1" xmlns="http://www.w3.org/2000/svg" viewBox="0 0 322 322.5"><defs><style>.cls-1{fill:#95d3f4;}.cls-2{fill:#0086ff;}.cls-3{fill:#846650;}.cls-4{fill:#aa866d;}.cls-5{fill:#2f3221;}.cls-6{fill:#1e1105;}.cls-7{fill:#0d0b03;}</style></defs><title>aragon</title><circle class="cls-1" cx="161" cy="161" r="155"/><path class="cls-2" d="M161,12A149,149,0,0,1,266.36,266.36,149,149,0,0,1,55.64,55.64,148,148,0,0,1,161,12m0-12A161,161,0,1,0,322,161,161,161,0,0,0,161,0Z"/><rect class="cls-3" x="130.75" y="66.64" width="80.48" height="174.37" rx="33.68"/><rect class="cls-4" x="127.4" y="76.7" width="80.48" height="110.66" rx="28.25"/><path class="cls-5" d="M241.41,281.24H100.57c-22.13,0-46.94,2-46.94-20.12l10.06-23.47c6.7-13.41,6.7-16.76,13.41-26.82,4.3-6.46,15.17-13.42,23.47-13.42l29.14-10.06L137.27,202A25.23,25.23,0,0,0,153,207.47l29.16-2.56a29.64,29.64,0,0,0,16-6.47l13.71-11.09,29.57,6.71c8.3,0,23.75,15.77,30.18,20.12C282.3,221.43,298,216.67,298,230.5l-11,12C287,264.63,263.54,281.24,241.41,281.24Z"/><path class="cls-6" d="M132.14,201.77c-10.79,6.1-19.65,16.14-34.31,13.82-6.31-1-2.53-4.79-3.92-7,14-11.51,10.12-27,10.84-42.27,1.33-28.12,2.92-56.56,15-82.83,11.46-24.9,27-33.32,53.25-29.36,19.51,2.94,37.55,21.58,40.51,43.08C216.61,119.61,224,141,225,164.09c.43,10.27,8.28,22.14,17,30.82-1.16,2.69-2.46,5.32-3.47,8.07-3.65,9.86-12.8,9.54-20.59,10.22-9.59.83-7.87-8.68-9.95-13.95-2.47-6.25-.22-14.35-7.58-18.69-2.76-1.52-4.11-4-4.85-6.95,1.87-16.68-2.22-33.15-2.1-49.77,1.43-8.2,2.13-16.28-4.36-23a27.08,27.08,0,0,1-3.19-3.66c-4.39-8.25-12.11-9.68-20.38-10-18.88,1.92-10.06,18.54-14.78,28-7.37,16.71-20.65,32-12.74,52.42,0,2.87.05,5.73.07,8.61C137,185,141.94,195.06,132.14,201.77Z"/><path class="cls-7" d="M249.33,289.72,171.24,315.1a5.41,5.41,0,0,1-2.53.19L92,302.5c-2.66,0-31.6-20.12-41-28.59a5.34,5.34,0,0,1-1.06-6.67l4.64-7.95a4.45,4.45,0,0,0,.51-1.21c.69-2.88,8.21-5.36,11.52-5.57a3.86,3.86,0,0,0,.84-.11l72.67-17.92a5.28,5.28,0,0,1,1.49-.15l82.69,3.31a4.9,4.9,0,0,1,.76.08l54.19,10a5.83,5.83,0,0,1,.59,0,5.29,5.29,0,0,1,3.69,8.14l-12,18.9a5.49,5.49,0,0,0-.54,1.12c-1.24,3.51-17,13.08-20.65,13.58A5.19,5.19,0,0,0,249.33,289.72Z"/><path class="cls-2" d="M161,12.5A149,149,0,0,1,266.36,266.86,149,149,0,0,1,55.64,56.14,148,148,0,0,1,161,12.5m0-12a161,161,0,1,0,161,161A161,161,0,0,0,161,.5Z"/></svg>