<svg id="Layer_1" data-name="Layer 1" xmlns="http://www.w3.org/2000/svg" viewBox="0 0 322 322"><defs><style>.cls-1{fill:#8e4949;}.cls-2{fill:#ce2424;}.cls-3{fill:#050209;}.cls-4{fill:#da2205;}.cls-5{fill:#f1ce0f;}.cls-5,.cls-6{opacity:0.5;}.cls-6,.cls-8{fill:#ff0;}.cls-7{fill:red;}.cls-8{opacity:0.47;}.cls-9{fill:#2b2b2b;}</style></defs><title>Artboard 5</title><g id="balrog_icon" data-name="balrog icon"><circle class="cls-1" cx="161" cy="161" r="155"/><path class="cls-2" d="M161,12A149,149,0,0,1,266.36,266.36,149,149,0,0,1,55.64,55.64,148,148,0,0,1,161,12m0-12A161,161,0,1,0,322,161,161,161,0,0,0,161,0Z"/><g id="balrog"><g id="face"><path id="balrogface" class="cls-3" d="M125.54,245.13l16.26,11.26a19.14,19.14,0,0,1,1.8,1.43l8.68,7.9a17.41,17.41,0,0,0,23,.33L189.44,254a17,17,0,0,0,1.55-1.51l14.48-15.92a17.44,17.44,0,0,0,4.42-9.79l6.77-60.93a4.74,4.74,0,0,1,1.65-3.1l21-17.75a4.76,4.76,0,0,1,5-.7L261,151.82a4.69,4.69,0,0,1,2.28,2.2l7.58,15.14a4.76,4.76,0,0,1-.21,4.61l-13.82,22.46-18.93,28.39a1.15,1.15,0,0,0-.12.25l-2.88,8.66a17,17,0,0,0,2.38,15.4l8.31,11.43a1.06,1.06,0,0,0,1.92-.56l1.69-27a1,1,0,0,1,.42-.78L272,215.23l30.63-24.5a29,29,0,0,0,9.86-15L319,151.9a29,29,0,0,0-.72-17.54L314.48,124a75.15,75.15,0,0,0-28.3-36.42l-10.51-7.17a44.28,44.28,0,0,0-24.94-7.69H239.16a44.28,44.28,0,0,0-20.54,5L189.88,92.8c-1,.53-2,1-3.1,1.47l-5.18,2.22a44.25,44.25,0,0,1-38.77-1.9l-15.91-8.75a45.88,45.88,0,0,0-6.6-3L94.4,73.74a43.84,43.84,0,0,0-6.06-1.67l-1.49-.3a44.32,44.32,0,0,0-27.71,3.44l-16.79,8A44.23,44.23,0,0,0,26,96.61L11.24,116.25A36.21,36.21,0,0,0,4,138v16.47a36.17,36.17,0,0,0,4.65,17.74l8.64,15.37a36.21,36.21,0,0,0,10.08,11.39l29.85,22,18.56,14.84a1.41,1.41,0,0,1,.5.93l1.58,17.48a1.36,1.36,0,0,0,2.3.83l5.9-5.9a17.73,17.73,0,0,0,4.56-17.2l-2.9-10.64a1.36,1.36,0,0,0-.35-.6L66.72,200,52.14,185.45a7.61,7.61,0,0,1-2.2-6.08l1.25-13.72A7.56,7.56,0,0,1,54.55,160L71.9,148.43a7.65,7.65,0,0,1,5.3-1.21l19.89,2.84a7.66,7.66,0,0,1,5.66,4l15.16,28.65a1.06,1.06,0,0,1,.13.5v47.63A17.4,17.4,0,0,0,125.54,245.13Z"/><polygon class="cls-4" points="131.34 173.42 133.24 239.94 142.75 245.64 153 233 157 256 178.86 257.05 182.66 238.04 192.16 245.64 203.56 232.34 203.56 175.32 188.36 219.04 186.46 182.92 178.86 190.53 171.25 184.82 163.65 192.43 157.95 188.63 148.45 194.33 148.45 217.13 131.34 173.42"/><polygon class="cls-5" points="133.24 184.82 136.84 236.74 142.75 239.94 154.15 224.74 160.65 252.05 177.66 252.05 181.06 235.04 189.56 241.84 199.76 229.94 199.76 190.53 186.46 224.74 182.66 188.63 177.66 192.53 170.85 187.43 164.05 194.23 158.95 190.83 152.25 196.23 148.45 220.94 133.24 184.82"/></g><ellipse class="cls-6" cx="159.63" cy="137.39" rx="5.62" ry="2.81" transform="translate(-25.06 238.61) rotate(-69.44)"/><ellipse class="cls-6" cx="168.22" cy="137.47" rx="2.81" ry="5.62" transform="translate(-37.56 67.82) rotate(-20.56)"/><g id="left_eye" data-name="left eye"><ellipse class="cls-7" cx="132.23" cy="124.45" rx="7.6" ry="15.2" transform="matrix(0.28, -0.96, 0.96, 0.28, -23.82, 217.3)"/><circle class="cls-8" cx="133.24" cy="125.91" r="5.7"/></g><g id="right_eye" data-name="right eye"><ellipse class="cls-7" cx="197.46" cy="125.22" rx="15.2" ry="7.6" transform="translate(-26.84 59.21) rotate(-15.98)"/><circle class="cls-6" cx="198.47" cy="125.66" r="5.7"/></g><polygon class="cls-9" points="108 154 114 165 123 183 124 145 99 126 57 131 38 149 38 175 45 192 48 180 49 158 73 143 102 147 108 154"/><polygon class="cls-9" points="216 161 213 166 210 180 210 145 240 126 271 140 284 165 283 177 270 186 275 172 267 152 241 139 219 158 216 161"/></g><path class="cls-2" d="M161,12A149,149,0,0,1,266.36,266.36,149,149,0,0,1,55.64,55.64,148,148,0,0,1,161,12m0-12A161,161,0,1,0,322,161,161,161,0,0,0,161,0Z"/></g></svg>