<svg id="Layer_1" data-name="Layer 1" xmlns="http://www.w3.org/2000/svg" viewBox="0 0 322 322"><defs><style>.cls-1{fill:#95d3f4;}.cls-2{fill:#0086ff;}.cls-3{fill:#846650;}.cls-4{fill:#aa866d;}.cls-5{fill:#672302;}.cls-6{fill:#0d0b03;}.cls-7{fill:#783818;}.cls-8{fill:#834526;}.cls-9{fill:#692605;}.cls-10{fill:#1b212a;}.cls-11{fill:#1d090d;}.cls-12{fill:#210a0d;}</style></defs><title>boromir</title><circle class="cls-1" cx="161" cy="161" r="155"/><path class="cls-2" d="M161,12A149,149,0,0,1,266.36,266.36,149,149,0,0,1,55.64,55.64,148,148,0,0,1,161,12m0-12A161,161,0,1,0,322,161,161,161,0,0,0,161,0Z"/><rect class="cls-3" x="124.75" y="88.14" width="80.48" height="174.37" rx="33.68"/><rect class="cls-4" x="121.4" y="98.2" width="80.48" height="110.66" rx="28.25"/><path class="cls-5" d="M126.14,223.27c-10.79,6.1-19.65,16.14-34.31,13.82-6.31-1-2.53-4.79-3.92-7,14-11.51,10.12-27,10.84-42.27,1.33-28.12,2.92-56.56,15-82.83,11.46-24.9,27-33.32,53.25-29.36,19.51,2.94,37.55,21.58,40.51,43.08,3.08,22.37,10.48,43.8,11.43,66.85.43,10.27,8.28,22.14,17,30.82-1.16,2.69-2.46,5.32-3.47,8.07-3.65,9.86-12.8,9.54-20.59,10.22-9.59.83-7.87-8.68-9.95-13.95-2.47-6.25-.22-14.35-7.58-18.69-2.76-1.52-4.11-4-4.85-6.95,1.87-16.68,4.38-22.49,4.5-39.11,1.44-8.21-4.47-26.94-11-33.67a27.08,27.08,0,0,1-3.19-3.66c-4.39-8.25-12.11-9.68-20.38-10C140.59,110.64,135.72,120.59,131,130c-7.37,16.71-7,38.64.95,59.09,0,2.87.05,5.73.07,8.61C131,206.45,135.94,216.56,126.14,223.27Z"/><path class="cls-6" d="M244.11,291.26l-73.39,24.49a4.93,4.93,0,0,1-2.38.18L96.25,303.6c-2.51,0-29.7-19.41-38.57-27.59a5.24,5.24,0,0,1-1-6.43L61,261.91a4.58,4.58,0,0,0,.48-1.17c.65-2.78,7.71-5.16,10.83-5.37a3.5,3.5,0,0,0,.79-.11L141.43,238a5.09,5.09,0,0,1,1.4-.14L220.55,241a5.56,5.56,0,0,1,.7.08l50.94,9.64a5.07,5.07,0,0,1,.55,0c3.6.38,5.41,4.71,3.47,7.85L264.9,276.86a5.3,5.3,0,0,0-.5,1.08c-1.17,3.38-16,12.62-19.42,13.09A6.56,6.56,0,0,0,244.11,291.26Z"/><path class="cls-7" d="M145.24,173a.69.69,0,0,1,.24-.6c8.09-3.72,17.65-2.72,27.3-1.39.78,1.28-1.32,1.87-3.57,2.43C161.19,173.68,153,175.51,145.24,173Z"/><path class="cls-8" d="M168.51,173.6l2.34-2.45c3.42,3.92,3,9.25,4.09,14l-4-2.55A7.56,7.56,0,0,1,168.51,173.6Z"/><path class="cls-9" d="M175.83,184.61c-4.28,12.61-15.09,11.68-24.86,8.81-12.88-3.77-9.16-12.91-5.51-21.27,1.16.47,4.64,10.14,5.48,11,6.49,5.38,10.27-3.46,17,1C170.21,185.36,175,182.25,175.83,184.61Z"/><path class="cls-10" d="M50,274l7.69-14.85c6.7-13.41,6.7-16.76,13.41-26.82,4.3-6.46,15.17-13.42,23.47-13.42l29.14-10.06,7.56,14.66A25.23,25.23,0,0,0,147,229l29.16-2.56a29.64,29.64,0,0,0,16-6.47l13.71-11.09,29.57,6.71c8.3,0,23.75,15.77,30.18,20.12C276.3,242.93,292,238.17,292,252l-11,12c0,7.35-37.65,30.79-72,36-17.17,2.61-26.63-58.68-46-57s4.29,58.82-13,59C115,302.36,50,281.44,50,274Z"/><path class="cls-11" d="M130.69,197c5.16,9.78,4.23,20.69,5.76,31.14l-2.31,0c-5.44-4.1-13.8-5.25-14.42-14.24A43.57,43.57,0,0,1,130.69,197Z"/><path class="cls-12" d="M195.66,211.89c.49-2.35,1-4.69,1.48-7,1.4-1.64,2.35-4.58,5.09-3.47,3.55,1.44,3.45,4.88,3.12,8.13-1.67,5.4-6.16,7.43-10.92,9.12C193.15,216.08,194.1,213.93,195.66,211.89Z"/><path class="cls-2" d="M161,12A149,149,0,0,1,266.36,266.36,149,149,0,0,1,55.64,55.64,148,148,0,0,1,161,12m0-12A161,161,0,1,0,322,161,161,161,0,0,0,161,0Z"/></svg>