<svg id="Layer_1" data-name="Layer 1" xmlns="http://www.w3.org/2000/svg" viewBox="0 0 322 322"><defs><style>.cls-1{fill:#8e4949;}.cls-2{fill:#ce2424;}.cls-3{fill:#46563b;}.cls-4{fill:#607252;}.cls-5{fill:#030012;}.cls-10,.cls-6{fill:#37422e;}.cls-6,.cls-8{opacity:0.53;}.cls-7{fill:#93615f;}.cls-8{fill:#ffa39a;}.cls-9{fill:#bab5b5;}.cls-10{opacity:0.65;}</style></defs><title>Artboard 9</title><g id="cavetroll"><circle class="cls-1" cx="161" cy="161" r="155"/><path class="cls-2" d="M161,12A149,149,0,0,1,266.36,266.36,149,149,0,0,1,55.64,55.64,148,148,0,0,1,161,12m0-12A161,161,0,1,0,322,161,161,161,0,0,0,161,0Z"/><polygon class="cls-3" points="94 122 66 155 57 158 26 202 13 221 75 289 153 315 218 306 262 277 286 252 306 220 314 204 297 184 277 171 258 158 239.71 140.9 241 189 221 254 174 294 112 269 83 191 94 122"/><ellipse class="cls-3" cx="163" cy="182.5" rx="82" ry="117.5"/><ellipse class="cls-4" cx="112" cy="182.5" rx="8" ry="2.5"/><ellipse class="cls-4" cx="224" cy="170.5" rx="11" ry="2.5" transform="translate(-37.18 65.48) rotate(-15.37)"/><ellipse class="cls-5" cx="159.5" cy="172" rx="3.5" ry="8"/><ellipse class="cls-5" cx="176.5" cy="172" rx="3.5" ry="8" transform="translate(-15.87 17.95) rotate(-5.57)"/><path class="cls-6" d="M127.4,170.72l-1.31-2.07a9,9,0,0,1,4.71-13.33l33.79-11.5a9,9,0,0,1,4.89-.26L199,150.27a9,9,0,0,1,5.76,13.34h0A9,9,0,0,1,194,167.53l-23.13-8.16a9,9,0,0,0-7.46.67l-23.94,13.69A9,9,0,0,1,127.4,170.72Z"/><path class="cls-7" d="M155.59,233a4,4,0,0,1,4.41,4v-1a4,4,0,0,1,4-4h4a4,4,0,0,1-4-4,4,4,0,0,1-4,4h-3a4,4,0,0,1-4-4v-4.47l-12.42,14.61a1.2,1.2,0,0,0,.86,2l10.56.48v-3.4A4.13,4.13,0,0,1,155.59,233Z"/><path class="cls-8" d="M164.23,220.71l-.59-.34A3.89,3.89,0,0,1,164,222,3.88,3.88,0,0,1,164.23,220.71Z"/><path class="cls-7" d="M175,228a4,4,0,0,1-4,4h-3a4,4,0,0,1,4,4,4,4,0,0,1,4-4h3A4,4,0,0,1,175,228Z"/><path class="cls-7" d="M186,227v1a4,4,0,0,1-4,4,4,4,0,0,1,4,4v-1a4,4,0,0,1,4-4A4,4,0,0,1,186,227Z"/><path class="cls-8" d="M175.16,221l-.27.16a3.74,3.74,0,0,1,.11.89A4.11,4.11,0,0,1,175.16,221Z"/><path class="cls-8" d="M186,241.7h.07A3.84,3.84,0,0,1,186,241Z"/><path class="cls-7" d="M186,221.06h0a4.08,4.08,0,0,1,4.06-4.06h2.88a4.08,4.08,0,0,1,4.06,4.06V227a4,4,0,0,1-3.38,3.95.05.05,0,0,0,0,.1,4,4,0,0,1,2.36,1.32s.08,0,.09,0A4,4,0,0,1,200,229h2.94a4.08,4.08,0,0,1,4.06,4.06v1.44a.06.06,0,0,0,.1,0l1.33-1.77a1.48,1.48,0,0,0,.11-1.6l-9.11-16.38a2.59,2.59,0,0,0-1.25-1.13l-5-2.13a2.6,2.6,0,0,0-2.35.15L180.15,218H182a4,4,0,0,1,3.89,3.07A.06.06,0,0,0,186,221.06Z"/><path class="cls-9" d="M160,237a4,4,0,0,0-8,0v3.59l8,.36Z"/><path class="cls-9" d="M168,232h-4a4,4,0,0,0-4,4V241l12,.55V236A4,4,0,0,0,168,232Z"/><path class="cls-9" d="M186,236a4,4,0,0,0-4-4h-6a4,4,0,0,0-4,4v5.5l11,.5,3-.3V236Z"/><path class="cls-9" d="M196,239v-6a3.31,3.31,0,0,1,.06-.55A4,4,0,0,0,193,231h-3a4,4,0,0,0-4,4v6a3.84,3.84,0,0,0,.07.69l10.31-1A3.89,3.89,0,0,1,196,239Z"/><path class="cls-9" d="M203,229h-3a4,4,0,0,0-3.94,3.45A4,4,0,0,1,197,235v5.6l6-.6,4-5.33V233A4,4,0,0,0,203,229Z"/><path class="cls-9" d="M196.06,232.45a3.31,3.31,0,0,0-.06.55v6a3.89,3.89,0,0,0,.38,1.66l.62-.06V235A4,4,0,0,0,196.06,232.45Z"/><path class="cls-9" d="M197,227v-6a4,4,0,0,0-4-4h-3a4,4,0,0,0-4,4v6a4,4,0,0,0,4,4h3A4,4,0,0,0,197,227Z"/><path class="cls-9" d="M175,228a4,4,0,0,0,4,4h3a4,4,0,0,0,4-4v-6a4,4,0,0,0-4-4h-1.85l-5,2.95A4.11,4.11,0,0,0,175,222Z"/><path class="cls-9" d="M164,228a4,4,0,0,0,4,4h3a4,4,0,0,0,4-4v-6a3.74,3.74,0,0,0-.11-.89l-1.79,1.06a6.2,6.2,0,0,1-6.23,0l-2.64-1.5A3.88,3.88,0,0,0,164,222Z"/><path class="cls-9" d="M157,232h3a4,4,0,0,0,4-4v-6a3.89,3.89,0,0,0-.36-1.63L163,220h-7l-3,3.53V228A4,4,0,0,0,157,232Z"/><path class="cls-10" d="M165,284c-44.47,0-80.67-50.73-82-114,0,1.16,0,2.33,0,3.5C83,238.39,119.71,291,165,291s82-52.61,82-117.5c0-1.17,0-2.34,0-3.5C245.67,233.27,209.47,284,165,284Z"/><path class="cls-2" d="M161,12A149,149,0,0,1,266.36,266.36,149,149,0,0,1,55.64,55.64,148,148,0,0,1,161,12m0-12A161,161,0,1,0,322,161,161,161,0,0,0,161,0Z"/></g></svg>