<svg id="Layer_1" data-name="Layer 1" xmlns="http://www.w3.org/2000/svg" width="323" height="324" viewBox="0 0 323 324">
  <title>Artboard 14</title>
  <g id="ents">
    <g>
      <circle cx="161" cy="163" r="155" fill="#95d3f4"/>
      <path d="M161,14A149,149,0,0,1,266.36,268.36,149,149,0,0,1,55.64,57.64,148,148,0,0,1,161,14m0-12A161,161,0,1,0,322,163,161,161,0,0,0,161,2Z" fill="#0086ff"/>
    </g>
    <g>
      <g>
        <path d="M137.74,203.72l5,9.89a46,46,0,0,1,5,20.9v1.62a46.42,46.42,0,0,1-.75,8.33l-3.63,19.7a45.93,45.93,0,0,1-5,14l-6.74,12.18a46.14,46.14,0,0,1-11.25,13.42h0a45.69,45.69,0,0,1-9.91,6.15L109,313l6.07,2a49.48,49.48,0,0,0,17.24-7.82h0a49.46,49.46,0,0,0,14-15.38l7-12.1a49.55,49.55,0,0,0,5.73-15.07l2.52-12.45a49.6,49.6,0,0,0-.76-22.79l-2.4-8.8a49.75,49.75,0,0,0-6.34-14.08l-12.65-19.3h-10Z" fill="#8c6239"/>
        <path d="M137.74,203.72l5,9.89a46,46,0,0,1,5,20.9v1.62a46.42,46.42,0,0,1-.75,8.33l-3.63,19.7a45.93,45.93,0,0,1-5,14l-6.74,12.18a46.14,46.14,0,0,1-11.25,13.42h0a45.69,45.69,0,0,1-9.91,6.15l-.5.1,5.07,5a49.48,49.48,0,0,0,17.24-7.82h0a49.46,49.46,0,0,0,14-15.38l7-12.1a49.55,49.55,0,0,0,5.73-15.07l2.52-12.45a49.6,49.6,0,0,0-.76-22.79l-2.4-8.8a49.75,49.75,0,0,0-6.34-14.08l-12.65-19.3h-10Z" fill="#a67c52"/>
      </g>
      <path d="M168.22,200.31l13.11-16h-5.18l-9.65,12.5A12.25,12.25,0,0,0,164,204.3v1.2h0Z" fill="#a67c52"/>
      <g>
        <path d="M225.93,302.77a98.08,98.08,0,0,1-10.26-20.54l-3.07-8.5q-.9-2.52-1.68-5.1l-.57-1.89a98.41,98.41,0,0,1-3.81-20.19l-.74-9c-.14-1.73-.24-3.47-.28-5.21l-.29-10h0a52.43,52.43,0,0,1,4.24-20.66L216,186.49l-10.73.71-8.21,15.28-.18.31L195,205.84a6.07,6.07,0,0,1-5.27,2.88l-4.07-.08h0a9.77,9.77,0,0,1-1.44.1h-1a5,5,0,0,1-3-1l-.75-.57a5,5,0,0,1-2-4.42v-.05a5.07,5.07,0,0,1,1.06-2.68l12.35-15.69h-9.54l-13.11,16-4.27,5.2h0a.63.63,0,0,1-1.12.38l-1-1.2a49.88,49.88,0,0,1-5.66-9l-4.12-8.46H139.48l12.65,19.3a49.75,49.75,0,0,1,6.34,14.08l2.4,8.8a49.6,49.6,0,0,1,.76,22.79l-2.52,12.45a49.55,49.55,0,0,1-5.73,15.07l-7,12.1a49.46,49.46,0,0,1-14,15.38h0A49.48,49.48,0,0,1,115.07,315L227,305Z" fill="#8c6239"/>
        <path d="M189.74,208.72a6.07,6.07,0,0,0,5.27-2.88l1.87-3.05.18-.31,8.21-15.28-5.42.36-6.39,15.07a10,10,0,0,1-7.79,6h0Z" fill="#a67c52"/>
      </g>
      <circle cx="128.05" cy="173.92" r="21.18" fill="#39b54a"/>
      <circle cx="149.23" cy="171.05" r="21.18" fill="#39b54a"/>
      <circle cx="170.41" cy="168.18" r="21.18" fill="#39b54a"/>
      <circle cx="193.74" cy="168.18" r="21.18" fill="#39b54a"/>
      <circle cx="214.92" cy="173.92" r="21.18" fill="#39b54a"/>
      <circle cx="233.95" cy="163.15" r="21.18" fill="#39b54a"/>
      <circle cx="259.44" cy="141.97" r="21.18" fill="#39b54a"/>
      <circle cx="222.82" cy="91.36" r="21.18" fill="#39b54a"/>
      <circle cx="244" cy="116.85" r="21.18" fill="#39b54a"/>
      <circle cx="188.36" cy="87.05" r="21.18" fill="#39b54a"/>
      <circle cx="109.38" cy="159.21" r="21.18" fill="#39b54a"/>
      <circle cx="91.08" cy="138.03" r="21.18" fill="#39b54a"/>
      <circle cx="83.18" cy="105.36" r="21.18" fill="#39b54a"/>
      <circle cx="106.87" cy="88.49" r="21.18" fill="#39b54a"/>
      <circle cx="133.44" cy="84.18" r="21.18" fill="#39b54a"/>
      <circle cx="162.51" cy="84.18" r="21.18" fill="#39b54a"/>
      <ellipse cx="169.51" cy="126.54" rx="74.49" ry="54.21" fill="#39b54a"/>
    </g>
    <path d="M162,12A149,149,0,0,1,267.36,266.36,149,149,0,0,1,56.64,55.64,148,148,0,0,1,162,12m0-12A161,161,0,1,0,323,161,161,161,0,0,0,162,0Z" fill="#0086ff"/>
  </g>
</svg>
