<svg id="Layer_1" data-name="Layer 1" xmlns="http://www.w3.org/2000/svg" viewBox="0 0 322 322"><defs><style>.cls-1{fill:#95d3f4;}.cls-2{fill:#0086ff;}.cls-3{fill:#4b4b46;}.cls-4{fill:#696d6a;}.cls-5{fill:#c99e89;}.cls-6{fill:#cfa78e;}.cls-7{fill:#7f827f;}.cls-8,.cls-9{fill:none;stroke-miterlimit:10;}.cls-8{stroke:#7f827f;stroke-width:6px;}.cls-9{stroke:#563730;stroke-width:12px;}.cls-10{fill:#563730;}.cls-11{fill:#696c69;}</style></defs><title>gandalf</title><circle class="cls-1" cx="161" cy="162" r="155"/><path class="cls-2" d="M161,13A149,149,0,0,1,266.36,267.36,149,149,0,0,1,55.64,56.64,148,148,0,0,1,161,13m0-12A161,161,0,1,0,322,162,161,161,0,0,0,161,1Z"/><polygon class="cls-3" points="127.27 318.08 178.92 183.4 254.42 276.58 251 288 236.74 300.71 127.27 318.08"/><polygon class="cls-4" points="38 256 37.91 245.13 138.89 178.22 146.53 301.95 147 319 134.66 315.66 46.54 271.78 38 256"/><rect class="cls-5" x="114.18" y="119" width="76.36" height="84" rx="8.89"/><path class="cls-6" d="M169.17,202H133.83c-8.19,0-14.83-6.29-14.83-14v-2.13a13.46,13.46,0,0,1,2-7.06h0a23.26,23.26,0,0,0,2.6-18.57l-4.1-14.41a13.29,13.29,0,0,1-.51-3.65V132c0-7.75,6.64-14,14.83-14h35.34c8.19,0,14.83,6.29,14.83,14V188C184,195.71,177.36,202,169.17,202Z"/><path class="cls-7" d="M147.22,309.15,134,251.48a91.51,91.51,0,0,0-4.86-15.06L112.76,197.6a4,4,0,0,1,3.87-5.58l68,1.74a9.27,9.27,0,0,1,8.53,12.45l-6.12,16.46h0a19.55,19.55,0,0,0-19.76,23.15l.75,3.89a57.64,57.64,0,0,1-2.56,31l-10.64,28.62A4,4,0,0,1,147.22,309.15Z"/><path class="cls-8" d="M168,193.5c0,3.24-6.57,5.87-14.67,5.87s-14.67-2.63-14.67-5.87,6.36-3.26,14.67-5.86C161.09,185.21,168,190.26,168,193.5Z"/><line class="cls-9" x1="252.53" y1="157.94" x2="257" y2="286"/><path class="cls-10" d="M269.29,162.57c0-9.22-4.86-24.56-8.59-30.07-3-4.42-.08-8.59-4.3-8.59-4.74,0-9.77,7.44-12.88,12.88s0,8.88,0,17.18c0,4.16-.87,9.29,0,12.89,1.19,4.92,1.88,14,4.29,17.18,2.87,3.78,2.57,2.15,6.45,2.15,4.74,0,6.44,4.12,6.44-2.15C260.7,179.75,269.29,170.87,269.29,162.57Z"/><path class="cls-6" d="M247.81,263.51c0,4,3.49,11.72,4.3,15,1.81,7.44,2.34,8.59,6.44,8.59,5.93,0,10.74-10.58,10.74-23.62s-4.81-23.63-10.74-23.63c-4.59,0-4.91,8.27-6.44,17.18C251.66,259.66,247.81,260.56,247.81,263.51Z"/><path class="cls-11" d="M76,133.45l20.27-6.75a94.2,94.2,0,0,0,54.44-47.22l7.17-14.33A49.1,49.1,0,0,1,201.8,38h26.92l-24,36a38.38,38.38,0,0,0,0,42.57l24,36Z"/><path class="cls-2" d="M161,12A149,149,0,0,1,266.36,266.36,149,149,0,0,1,55.64,55.64,148,148,0,0,1,161,12m0-12A161,161,0,1,0,322,161,161,161,0,0,0,161,0Z"/></svg>