<svg id="Layer_1" data-name="Layer 1" xmlns="http://www.w3.org/2000/svg" viewBox="0 0 322 323"><defs><style>.cls-1{fill:#95d3f4;}.cls-2{fill:#0086ff;}.cls-3{fill:#150f09;}.cls-4{fill:#231612;}.cls-5{fill:#8f8a89;}.cls-6{fill:#9b7c6a;}.cls-7{fill:#422d23;}.cls-8{fill:#494949;}.cls-9{fill:none;stroke:#422d23;stroke-miterlimit:10;stroke-width:7px;}</style></defs><title>gimli</title><circle class="cls-1" cx="161" cy="162" r="155"/><path class="cls-2" d="M161,13A149,149,0,0,1,266.36,267.36,149,149,0,0,1,55.64,56.64,148,148,0,0,1,161,13m0-12A161,161,0,1,0,322,162,161,161,0,0,0,161,1Z"/><ellipse class="cls-3" cx="166" cy="234.51" rx="117.2" ry="60.34"/><ellipse class="cls-4" cx="164.6" cy="248.96" rx="121.35" ry="60.04"/><path class="cls-5" d="M256.11,291.17c-.65-18.85,4.88-34.67,8.3-52.46,10.47,6.43,7.92,17.72,7.89,27.53C269.47,278.68,263.07,285.37,256.11,291.17Z"/><path class="cls-5" d="M73.73,292.81c.66-18.84-4.87-34.67-8.29-52.45-10.47,6.42-7.92,17.72-7.89,27.53C60.37,280.32,66.77,287,73.73,292.81Z"/><rect class="cls-6" x="123.97" y="91.61" width="84.06" height="92.47" rx="12"/><path class="cls-7" d="M100.79,181.17l7-11.86c11,1.64,11.78-4.68,11-13.29s-4.43-18.55,7-23.8c12,30.17,37.32,23.93,60.9,22.35,3.08-.21,6.07-1,8.78,1.12,2.65,2.64,3.22,6.37,5.09,9.86,4.23-4.19,2.12-12,8.57-14.62,4.37,11.55,7.11,23.82,15,33.79,1.61,3.86,4.34,7.29,4.55,11.7,4.09,13.34-3.75,26.49-.49,39.8-3,19.39,2,38.26,3.7,57.36-7.67,7.18-17.27,10.42-27.1,13.18-12.3-6.57-7.29-21.14-13.92-32-10.24,13.52-12.4,30.93-26.72,39.84l-3.87.09c-13-12.25-19.94-27.42-21.42-45.19.38,16.43,8.05,30.54,14.05,45.18-6.5,1.05-12.84.88-18.76-2.47-4.9-6.94-11-8.56-18.47-4.19-4.22.19-8.11-.55-11.07-3.92-8.83-10.86-4.24-24-4.17-35.53.13-23.3-2.41-46.17-5.18-69.14C94,192.41,96.14,186.4,100.79,181.17Z"/><path class="cls-8" d="M132.38,147.81v-8.16a6.54,6.54,0,0,0-.93-3.36l-3.6-6a6.49,6.49,0,0,1-.76-4.79l4.3-19a6.52,6.52,0,0,1,7.3-5c8.68,1.25,23.81,4.56,24.86,12.52,1.25,9.4,10,2,12.81-.58a6.27,6.27,0,0,1,2.1-1.3l13.09-5a6.51,6.51,0,0,1,8.78,5.17l5.29,36.91a6.53,6.53,0,0,0,7.75,5.47l7-1.43a6.52,6.52,0,0,0,5-8.23l-15.9-54.25a6.51,6.51,0,0,0-6.37-4.69l-70.89,1.24a6.53,6.53,0,0,0-5.92,4L105.58,142a6.52,6.52,0,0,0,4.54,8.82l14.24,3.36A6.52,6.52,0,0,0,132.38,147.81Z"/><ellipse class="cls-8" cx="167.4" cy="88.81" rx="29.42" ry="9.81"/><ellipse class="cls-9" cx="161.8" cy="158.86" rx="17.51" ry="9.11"/><path class="cls-2" d="M161,12A149,149,0,0,1,266.36,266.36,149,149,0,0,1,55.64,55.64,148,148,0,0,1,161,12m0-12A161,161,0,1,0,322,161,161,161,0,0,0,161,0Z"/></svg>