<svg id="Layer_1" data-name="Layer 1" xmlns="http://www.w3.org/2000/svg" viewBox="0 0 322 322"><defs><style>.cls-1{fill:#8e4949;}.cls-2{fill:#ce2424;}.cls-3{fill:#a1a391;}.cls-4{fill:#929387;}.cls-5{fill:none;stroke:#3a3a3a;stroke-miterlimit:10;stroke-width:2px;}.cls-6{fill:#d29faa;}.cls-7{fill:#f1eff0;}</style></defs><title>Artboard 8</title><g id="gollum"><circle class="cls-1" cx="161" cy="161" r="155"/><path class="cls-2" d="M161,12A149,149,0,0,1,266.36,266.36,149,149,0,0,1,55.64,55.64,148,148,0,0,1,161,12m0-12A161,161,0,1,0,322,161,161,161,0,0,0,161,0Z"/><g id="gollum-2" data-name="gollum"><path class="cls-3" d="M148,300H129c-7.36,0-40.22-31.62-43-55-1-8.08,25-20.46,25-23V196a18.05,18.05,0,0,1,18-18h19a18.05,18.05,0,0,1,18,18v26c0,3,19.29,17,18,27C181,272.42,154.93,300,148,300Z"/><path class="cls-4" d="M275.78,255.42h0a13.68,13.68,0,0,1-3,18.55L219,310c-5.73,4.25-12.82,6-16.91,0h0a13.67,13.67,0,0,1,3-18.55l52.83-39.14A12.55,12.55,0,0,1,275.78,255.42Z"/><path class="cls-4" d="M213,311h-2c-5.73,4.25-7.37,5.73-11.47-.22l-37.69-54.86a13.67,13.67,0,0,1,3-18.55h0a12.53,12.53,0,0,1,17.86,3.1l37.7,54.86C224.48,301.28,218.73,306.75,213,311Z"/><path class="cls-3" d="M216,311l-6-1c-5.73,4.25-6.37,9.39-10.47,3.44l-40.46-58.89a13.68,13.68,0,0,1,3-18.56h0a12.54,12.54,0,0,1,17.86,3.1L220.39,298C224.48,303.94,221.73,306.75,216,311Z"/><path class="cls-3" d="M276.63,256.31h0a13.67,13.67,0,0,1-3,18.55L218,309c-5.73,4.25-11,7.85-15.05,1.9h0a13.66,13.66,0,0,1,3-18.55l52.83-39.14A12.54,12.54,0,0,1,276.63,256.31Z"/><path class="cls-4" d="M212.14,258.22h0a15,15,0,0,1-3.49,20.92L151,315c-6.72,4.79-15.21,6.72-20,0l-3,2c-4.79-6.72-5.36-13.35,1.35-18.14l61.87-44.14A15,15,0,0,1,212.14,258.22Z"/><path class="cls-4" d="M140,315l-7-1c-6.72,4.79-13.21,4.72-18-2L78.72,258.78a15,15,0,0,1,3.5-20.92h0a15,15,0,0,1,20.92,3.49l44.14,61.87C152.07,309.94,146.72,310.21,140,315Z"/><path class="cls-5" d="M209,135c9.23,26.51,7,7.85,7,36v31"/><ellipse class="cls-3" cx="150" cy="125" rx="80" ry="76"/><path class="cls-4" d="M216,83.14c0,7.25-39.21,12.12-64.75,12.12S105,89.38,105,82.13,125.71,69,151.25,69,216,75.89,216,83.14Z"/><path class="cls-3" d="M216,84.24c0,7.3-39.21,12.2-64.75,12.2S105,90.52,105,83.22,125.71,70,151.25,70,216,76.94,216,84.24Z"/><path class="cls-3" d="M89,162l23.87,30.33,28.57,23.6a37,37,0,0,0,19.6,8.25h0a37,37,0,0,0,29.35-9.91l.91-.87A36.79,36.79,0,0,0,200,200.74L226,148Z"/><path class="cls-5" d="M102,67h0q-5.06,11-9,22.4A251.41,251.41,0,0,0,79,172v23"/><ellipse class="cls-4" cx="143.5" cy="117" rx="21.5" ry="13"/><ellipse class="cls-4" cx="143" cy="90" rx="30" ry="13"/><ellipse class="cls-3" cx="143" cy="91" rx="30" ry="13"/><ellipse class="cls-4" cx="195" cy="92" rx="25" ry="13"/><ellipse class="cls-3" cx="195" cy="93" rx="25" ry="13"/><ellipse class="cls-4" cx="201" cy="116" rx="18" ry="13"/><path class="cls-5" d="M129,54h0q-5.06,11-9,22.4A251.41,251.41,0,0,0,106,159v50"/><path class="cls-6" d="M184,189.26l-1.91-6.48a5.26,5.26,0,0,0-5.05-3.78H173a2.73,2.73,0,0,1,.05.5v2a2.5,2.5,0,0,1-5,0V181l-2.9,1.94a5.28,5.28,0,0,1-6.08-.17l-3.62-2.72a5.11,5.11,0,0,0-1.5-.78,2.92,2.92,0,0,1,.1.73v1a3,3,0,0,1-6,0v-1a3,3,0,0,1,.14-.85,5.25,5.25,0,0,0-3.56,2.87l-3.05,6.48a5.26,5.26,0,0,0,4.76,7.5H154v-2a2,2,0,0,1,4,0v2h7v-2.5a1.5,1.5,0,0,1,3,0V196h11A5.26,5.26,0,0,0,184,189.26Z"/><path class="cls-7" d="M148,181a3,3,0,0,0,6,0v-1a2.92,2.92,0,0,0-.1-.73,5.14,5.14,0,0,0-1.65-.27h-2.91a5.33,5.33,0,0,0-1.2.15,3,3,0,0,0-.14.85Z"/><path class="cls-7" d="M170.5,184a2.5,2.5,0,0,0,2.5-2.5v-2a2.73,2.73,0,0,0-.05-.5h-.36a5.32,5.32,0,0,0-2.92.88L168,181v.5A2.51,2.51,0,0,0,170.5,184Z"/><path class="cls-7" d="M156,192a2,2,0,0,0-2,2v2h4v-2A2,2,0,0,0,156,192Z"/><path class="cls-7" d="M166.5,192a1.5,1.5,0,0,0-1.5,1.5V196h3v-2.5A1.5,1.5,0,0,0,166.5,192Z"/><circle class="cls-3" cx="91" cy="251" r="18"/><path class="cls-3" d="M136,319h0c-8-6-9-1-19-4L78.72,261.78a15,15,0,0,1,3.5-20.92h0a15,15,0,0,1,20.92,3.49l44.14,61.87C152.07,312.94,142.72,314.21,136,319Z"/><path class="cls-3" d="M213.14,259.22h0a15,15,0,0,1-3.49,20.92l-58.87,34.14c-6.72,4.79-9,7.44-13.78.72l-7.14-4.22c-4.8-6.71-6.22-6.13.49-10.92l61.87-44.14A15,15,0,0,1,213.14,259.22Z"/></g><path class="cls-2" d="M161,12A149,149,0,0,1,266.36,266.36,149,149,0,0,1,55.64,55.64,148,148,0,0,1,161,12m0-12A161,161,0,1,0,322,161,161,161,0,0,0,161,0Z"/></g></svg>