<svg id="Layer_1" data-name="Layer 1" xmlns="http://www.w3.org/2000/svg" viewBox="0 0 322 322"><defs><style>.cls-1{fill:#95d3f4;}.cls-2{fill:#0086ff;}.cls-3{fill:#846650;}.cls-4{fill:#aa866d;}.cls-5{fill:#562900;}.cls-6{fill:#0d0b03;}.cls-7{fill:#6b3028;}.cls-8{fill:#1d090d;}.cls-9{fill:#210a0d;}.cls-10{fill:#545454;}</style></defs><title>men</title><circle class="cls-1" cx="161" cy="161" r="155"/><path class="cls-2" d="M161,12A149,149,0,0,1,266.36,266.36,149,149,0,0,1,55.64,55.64,148,148,0,0,1,161,12m0-12A161,161,0,1,0,322,161,161,161,0,0,0,161,0Z"/><rect class="cls-3" x="125.75" y="88.14" width="80.48" height="174.37" rx="33.68"/><rect class="cls-4" x="122.4" y="98.2" width="80.48" height="110.66" rx="28.25"/><path class="cls-5" d="M133,212.31c-9,5.1-16.44,13.5-28.71,11.56-5.28-.83-2.12-4-3.28-5.84,11.69-9.63,8.47-22.62,9.07-35.36,1.12-23.53,2.45-47.34,12.57-69.32,9.59-20.84,22.6-27.88,44.56-24.57,16.32,2.47,31.42,18.06,33.9,36.06,2.58,18.71,8.77,36.65,9.56,55.93.36,8.6,6.94,18.53,14.21,25.8-1,2.24-2.06,4.45-2.9,6.74-3.06,8.26-10.72,8-17.24,8.56-8,.69-6.58-7.27-8.32-11.68-2.07-5.22-.18-12-6.34-15.63a8.55,8.55,0,0,1-4.06-5.82c1.56-14,3.67-18.82,3.77-32.73,1.2-6.86-3.75-22.54-9.18-28.17a22.8,22.8,0,0,1-2.66-3.06c-3.68-6.91-10.14-8.11-17.06-8.34-15.8,1.61-19.87,9.94-23.82,17.82-6.17,14-5.82,32.33.79,49.44,0,2.41,0,4.8.06,7.21C137,198.23,141.18,206.69,133,212.31Z"/><path class="cls-6" d="M245.11,291.26l-73.39,24.49a4.93,4.93,0,0,1-2.38.18L97.25,303.6c-2.51,0-29.7-19.41-38.57-27.59a5.24,5.24,0,0,1-1-6.43L62,261.91a4.58,4.58,0,0,0,.48-1.17c.65-2.78,7.71-5.16,10.83-5.37a3.5,3.5,0,0,0,.79-.11L142.43,238a5.09,5.09,0,0,1,1.4-.14L221.55,241a5.56,5.56,0,0,1,.7.08l50.94,9.64a5.07,5.07,0,0,1,.55,0c3.6.38,5.41,4.71,3.47,7.85L265.9,276.86a5.3,5.3,0,0,0-.5,1.08c-1.17,3.38-16,12.62-19.42,13.09A6.56,6.56,0,0,0,245.11,291.26Z"/><path class="cls-7" d="M51,274l7.69-14.85c6.7-13.41,6.7-16.76,13.41-26.82,4.3-6.46,15.17-13.42,23.47-13.42l29.14-10.06,7.56,14.66A25.23,25.23,0,0,0,148,229l29.16-2.56a29.64,29.64,0,0,0,16-6.47l13.71-11.09,29.57,6.71c8.3,0,23.75,15.77,30.18,20.12C277.3,242.93,293,238.17,293,252l-11,12c0,7.35-37.65,30.79-72,36-17.17,2.61-26.63-58.68-46-57s4.29,58.82-13,59C116,302.36,51,281.44,51,274Z"/><path class="cls-8" d="M131.69,197c5.16,9.78,4.23,20.69,5.76,31.14l-2.31,0c-5.44-4.1-13.8-5.25-14.42-14.24A43.57,43.57,0,0,1,131.69,197Z"/><path class="cls-9" d="M196.66,211.89c.49-2.35,1-4.69,1.48-7,1.4-1.64,2.35-4.58,5.09-3.47,3.55,1.44,3.45,4.88,3.12,8.13-1.67,5.4-6.16,7.43-10.92,9.12C194.15,216.08,195.1,213.93,196.66,211.89Z"/><ellipse class="cls-10" cx="245.9" cy="226.54" rx="15.41" ry="25.55" transform="translate(-21.88 426.75) rotate(-79.44)"/><ellipse class="cls-10" cx="269.53" cy="237.71" rx="11.35" ry="22.71" transform="translate(-78.25 328.26) rotate(-56)"/><path class="cls-10" d="M111.59,151.14c0-44,22.38-79.65,50-79.65s50,35.66,50,79.65"/><path class="cls-10" d="M118.37,178.26c0,24.33,12.19,44.06,4.23,44.06s-14.4-19.73-14.4-44.06,6.45-44.06,14.4-44.06S118.37,153.92,118.37,178.26Z"/><path class="cls-10" d="M160.81,166.35c26.16,0,47.37-13.11,47.37-4.56S187,177.28,160.81,177.28s-47.37-6.93-47.37-15.49S134.65,166.35,160.81,166.35Z"/><path class="cls-10" d="M205,178.26c0,24.33-12.19,44.06-4.24,44.06s14.41-19.73,14.41-44.06-6.45-44.06-14.41-44.06S205,153.92,205,178.26Z"/><ellipse class="cls-10" cx="161.66" cy="151.14" rx="3.39" ry="23.72"/><ellipse class="cls-10" cx="90.45" cy="229.54" rx="25.55" ry="15.41" transform="translate(-40.55 20.47) rotate(-10.56)"/><ellipse class="cls-10" cx="70.82" cy="242.71" rx="22.71" ry="11.35" transform="translate(-181.61 256.83) rotate(-76.93)"/><path class="cls-2" d="M161,12A149,149,0,0,1,266.36,266.36,149,149,0,0,1,55.64,55.64,148,148,0,0,1,161,12m0-12A161,161,0,1,0,322,161,161,161,0,0,0,161,0Z"/></svg>