<svg id="Layer_1" data-name="Layer 1" xmlns="http://www.w3.org/2000/svg" width="322" height="322" viewBox="0 0 322 322">
  <title>Artboard 13</title>
  <g>
    <circle cx="161" cy="161" r="155" fill="#8e4949"/>
    <path d="M161,12A149,149,0,0,1,266.36,266.36,149,149,0,0,1,55.64,55.64,148,148,0,0,1,161,12m0-12A161,161,0,1,0,322,161,161,161,0,0,0,161,0Z" fill="#ce2424"/>
  </g>
  <path d="M203,110l3,18c.67,1.77.28,8.13,0,10l-3,29,.14-38.09L182,112Z"/>
  <path d="M200,153c0-43.08,3.08-78-40-78s-69,34.92-69,78,25.92,78,69,78S200,196.08,200,153Z"/>
  <polygon points="91 153 86 221 71 281 94 306 172 312 237 296 229 255 202 184 161 231 91 153"/>
  <path d="M118,138.05c0,34.82-10.64,76.95,12,76.95s70-42.13,70-76.95S181.64,75,159,75,118,103.23,118,138.05Z"/>
  <path d="M200,153c0,24.55,7,35,0,52-4.23,10.27-16.34,23-25,23-22.37,0-25-34-25-74s1.63-76,24-76c13.4,0,23.3,12.54,29.09,31.21C207,121.7,200,136.94,200,153Z" fill="#3f3f3f"/>
  <path d="M150,112l4-17,2,41,2.13,9.05c1.23,5.23-.9,10.72-2.13,15.95l-1,10-1.4-13a48.76,48.76,0,0,1-.82-6L152,141Z"/>
  <path d="M154.27,151.44,155,158l.95-3.32a11.2,11.2,0,0,0-.37-7.23L155,146l-.22.67A11,11,0,0,0,154.27,151.44Z" fill="#3f3f3f"/>
  <path d="M161,12A149,149,0,0,1,266.36,266.36,149,149,0,0,1,55.64,55.64,148,148,0,0,1,161,12m0-12A161,161,0,1,0,322,161,161,161,0,0,0,161,0Z" fill="#ce2424"/>
</svg>
