<svg id="Layer_1" data-name="Layer 1" xmlns="http://www.w3.org/2000/svg" viewBox="0 0 322 322"><defs><style>.cls-1{fill:#8e4949;}.cls-2{fill:#ce2424;}.cls-3{fill:#39b314;}.cls-4{fill:#36a013;}.cls-5{fill:#da2205;opacity:0.66;}.cls-6{fill:#fff;}.cls-7{fill:#e8e8e8;}.cls-8{fill:#2e7012;}.cls-9{fill:#2d2d2d;}.cls-10{fill:#622b17;}</style></defs><title>Artboard 6</title><circle class="cls-1" cx="161" cy="161" r="155"/><path class="cls-2" d="M161,12A149,149,0,0,1,266.36,266.36,149,149,0,0,1,55.64,55.64,148,148,0,0,1,161,12m0-12A161,161,0,1,0,322,161,161,161,0,0,0,161,0Z"/><path class="cls-3" d="M204.45,211.39H96.11a12,12,0,0,0-12,12v70a12,12,0,0,0,12,12L154,316l50.45-4.61a12,12,0,0,0,12-12v-76A12,12,0,0,0,204.45,211.39Z"/><rect class="cls-4" x="98.65" y="92" width="116.16" height="124.23" rx="24.07"/><rect class="cls-3" x="97.04" y="92" width="111.32" height="122.61" rx="24.07"/><rect class="cls-5" x="121.24" y="187.19" width="75.83" height="9.68" rx="3"/><path class="cls-6" d="M198,161.72c-.16-1.05-.33-2.1-.55-3.15l-3.13-14.94-5.46,16.5c-3.84,11.59-11.34,22.48-22,31.9H180A71.69,71.69,0,0,0,197,165Z"/><path class="cls-7" d="M195.1,190A56.56,56.56,0,0,0,198,161.72L197,165A71.69,71.69,0,0,1,180,192h14.34Z"/><path class="cls-6" d="M122.39,161.72c.15-1.05.32-2.1.54-3.15l3.13-14.94,5.47,16.5c3.84,11.59,11.33,22.48,22,31.9H140.41a71.57,71.57,0,0,1-17-27.06Z"/><path class="cls-7" d="M125.31,190a56.56,56.56,0,0,1-2.92-28.24l1.07,3.25a71.57,71.57,0,0,0,17,27.06H126.06Z"/><path class="cls-8" d="M136.44,121h0a3.46,3.46,0,0,0,1.86,0h0a3.4,3.4,0,0,0,2.32-4.37l-3.25-.83-3.24.83A3.39,3.39,0,0,0,136.44,121Z"/><path class="cls-8" d="M176.78,121h0a3.46,3.46,0,0,0,1.86,0h0a3.39,3.39,0,0,0,2.31-4.37l-3.24-.83-3.25.83A3.4,3.4,0,0,0,176.78,121Z"/><ellipse class="cls-9" cx="155.12" cy="139.59" rx="1.61" ry="4.03"/><ellipse class="cls-9" cx="159.96" cy="139.59" rx="1.61" ry="4.03"/><polygon class="cls-10" points="102 209 127.69 229.13 150.28 253.33 180.93 230.75 197.07 211.39 222 211 230.95 242.04 223 305 150 315 84 299 68 263.01 80 209 102 209"/><ellipse class="cls-4" cx="138.41" cy="111.95" rx="1.62" ry="10.48" transform="translate(-17.3 198.24) rotate(-67.96)"/><ellipse class="cls-4" cx="178.74" cy="111.95" rx="10.48" ry="1.62" transform="translate(-28.95 75.25) rotate(-22.04)"/><path class="cls-2" d="M161,12A149,149,0,0,1,266.36,266.36,149,149,0,0,1,55.64,55.64,148,148,0,0,1,161,12m0-12A161,161,0,1,0,322,161,161,161,0,0,0,161,0Z"/></svg>