<svg id="Layer_1" data-name="Layer 1" xmlns="http://www.w3.org/2000/svg" viewBox="0 0 322 322"><defs><style>.cls-1{fill:#8e4949;}.cls-2{fill:#ce2424;}.cls-3{fill:#39b314;}.cls-4{fill:#36a013;}.cls-5{fill:#da2205;opacity:0.66;}.cls-6{fill:#fff;}.cls-7{fill:#e8e8e8;}.cls-8{fill:#2e7012;}.cls-9{fill:#2d2d2d;}.cls-10{fill:#622b17;}.cls-11{fill:#515151;}.cls-12{fill:#6b6b6b;}</style></defs><title>Artboard 10</title><circle class="cls-1" cx="161" cy="161" r="155"/><path class="cls-2" d="M161,12A149,149,0,0,1,266.36,266.36,149,149,0,0,1,55.64,55.64,148,148,0,0,1,161,12m0-12A161,161,0,1,0,322,161,161,161,0,0,0,161,0Z"/><path class="cls-3" d="M204.45,211.39H96.11a12,12,0,0,0-12,12v70a12,12,0,0,0,12,12L154,316l50.45-4.61a12,12,0,0,0,12-12v-76A12,12,0,0,0,204.45,211.39Z"/><rect class="cls-4" x="98.65" y="92" width="116.16" height="124.23" rx="24.07"/><rect class="cls-3" x="97.04" y="92" width="111.32" height="122.61" rx="24.07"/><rect class="cls-5" x="121.24" y="187.19" width="75.83" height="9.68" rx="3"/><path class="cls-6" d="M198,161.72c-.16-1.05-.33-2.1-.55-3.15l-3.13-14.94-5.46,16.5c-3.84,11.59-11.34,22.48-22,31.9H180A71.69,71.69,0,0,0,197,165Z"/><path class="cls-7" d="M195.1,190A56.56,56.56,0,0,0,198,161.72L197,165A71.69,71.69,0,0,1,180,192h14.34Z"/><path class="cls-6" d="M122.39,161.72c.15-1.05.32-2.1.54-3.15l3.13-14.94,5.47,16.5c3.84,11.59,11.33,22.48,22,31.9H140.41a71.57,71.57,0,0,1-17-27.06Z"/><path class="cls-7" d="M125.31,190a56.56,56.56,0,0,1-2.92-28.24l1.07,3.25a71.57,71.57,0,0,0,17,27.06H126.06Z"/><path class="cls-8" d="M136.44,121h0a3.46,3.46,0,0,0,1.86,0h0a3.4,3.4,0,0,0,2.32-4.37l-3.25-.83-3.24.83A3.39,3.39,0,0,0,136.44,121Z"/><path class="cls-8" d="M176.78,121h0a3.46,3.46,0,0,0,1.86,0h0a3.39,3.39,0,0,0,2.31-4.37l-3.24-.83-3.25.83A3.4,3.4,0,0,0,176.78,121Z"/><ellipse class="cls-9" cx="155.12" cy="139.59" rx="1.61" ry="4.03"/><ellipse class="cls-9" cx="159.96" cy="139.59" rx="1.61" ry="4.03"/><polygon class="cls-10" points="102 209 127.69 229.13 150.28 253.33 180.93 230.75 197.07 211.39 222 211 230.95 242.04 223 305 150 315 84 299 68 263.01 80 209 102 209"/><ellipse class="cls-4" cx="138.41" cy="111.95" rx="1.62" ry="10.48" transform="translate(-17.3 198.24) rotate(-67.96)"/><ellipse class="cls-4" cx="178.74" cy="111.95" rx="10.48" ry="1.62" transform="translate(-28.95 75.25) rotate(-22.04)"/><path class="cls-2" d="M161,12A149,149,0,0,1,266.36,266.36,149,149,0,0,1,55.64,55.64,148,148,0,0,1,161,12m0-12A161,161,0,1,0,322,161,161,161,0,0,0,161,0Z"/><g id="helm"><path class="cls-11" d="M215,98.59c0-26.49-26.19-48-58.5-48S98,72.1,98,98.59c0,.08,0,.16,0,.24H215C215,98.75,215,98.67,215,98.59Z"/><path class="cls-12" d="M211,98.61c0-23.66-22.56-43-51-44.34V98.83h51C211,98.76,211,98.68,211,98.61Z"/><path class="cls-12" d="M102.65,98.61c0,.07,0,.15,0,.22H152V54.37C124.34,56.38,102.65,75.41,102.65,98.61Z"/><path class="cls-11" d="M160,54.27V51.56c0-3.06-1.8-5.56-4-5.56s-4,2.5-4,5.56v2.81c1.59-.11,3.2-.18,4.82-.18C157.89,54.19,159,54.22,160,54.27Z"/><path class="cls-11" d="M156.82,54.19c-1.62,0-3.23.07-4.82.18V98.83h8V54.27C159,54.22,157.89,54.19,156.82,54.19Z"/><ellipse class="cls-12" cx="156" cy="51.56" rx="3" ry="4.17"/><ellipse class="cls-12" cx="156" cy="71.02" rx="3" ry="4.17"/><ellipse class="cls-12" cx="156" cy="90.49" rx="3" ry="4.17"/><rect class="cls-11" x="98" y="98.83" width="117" height="4.17"/><path class="cls-6" d="M137.68,54.4,113.84,66.63,99.65,25.8a.53.53,0,0,1,.91-.51l5,5.79A74.48,74.48,0,0,0,137.68,54.4Z"/><path class="cls-11" d="M112.66,59.74h27.68a0,0,0,0,1,0,0v1.92a3.08,3.08,0,0,1-3.08,3.08H115.74a3.08,3.08,0,0,1-3.08-3.08V59.74A0,0,0,0,1,112.66,59.74Z" transform="translate(-14.48 62.23) rotate(-26.19)"/><path class="cls-6" d="M175,54.4l23.83,12.23L215,22.8a.53.53,0,0,0-.91-.51l-7,8.79A74.45,74.45,0,0,1,175,54.4Z"/><path class="cls-11" d="M175.45,59.74h21.39A3.15,3.15,0,0,1,200,62.89v1.85a0,0,0,0,1,0,0H172.3a0,0,0,0,1,0,0V62.89A3.15,3.15,0,0,1,175.45,59.74Z" transform="translate(325.69 200.25) rotate(-153.81)"/></g></svg>