<svg id="Layer_1" data-name="Layer 1" xmlns="http://www.w3.org/2000/svg" viewBox="0 0 322 322"><defs><style>.cls-1{fill:#95d3f4;}.cls-2{fill:#0086ff;}.cls-3{fill:#2a271b;}.cls-4{fill:#47473b;}.cls-5{fill:#aba599;}.cls-6{fill:#745332;}.cls-7{fill:#b59881;}.cls-8{fill:#4b4a3c;}.cls-9{fill:#7f6039;}.cls-10{fill:#786e5d;}.cls-11{fill:#b29781;}</style></defs><title>sam</title><circle class="cls-1" cx="161" cy="162" r="155"/><path class="cls-2" d="M161,13A149,149,0,0,1,266.36,267.36,149,149,0,0,1,55.64,56.64,148,148,0,0,1,161,13m0-12A161,161,0,1,0,322,162,161,161,0,0,0,161,1Z"/><path class="cls-3" d="M204.15,315.72c-36.5,11.25-71.24,7.89-103.91-12.56C98,270.8,133.81,228,163.68,227.39c4.26,2.7,8.81,5.53,13.72,5.64,17.4.38,24.52,11.49,27.09,26.22C207.76,278,212.57,297,204.15,315.72Z"/><path class="cls-3" d="M249.15,211.49c18.64,6.12,22.49,25.21,33.41,38.11-8.42,22.37-25.44,37.29-44,50.85-.55.09-1.16.39-1.64.25-16.29-4.76-35.38-44.45-27.18-58.34,5-8.45,4.85-18.26,9.55-26.53C228,205.71,238.72,209.72,249.15,211.49Z"/><path class="cls-4" d="M161,228.76c-33,14.35-48.64,42.95-60.77,74.4-7-1.85-12.13-6.43-17.07-11.34-2.46-36.94,22.78-57.7,46.23-79.64,4.27-4,10.5-6.35,12-13,13.33,1.6,17.94,13.08,24.9,21.93a10.88,10.88,0,0,1,.11,4.75C165.32,228.19,164,230.07,161,228.76Z"/><path class="cls-5" d="M161,228.76l3.33-3.44a7.86,7.86,0,0,1,6.53-2.2c10.95,10,17.94.26,25.79-5.24,8.37-2.72,16.78-6.54,24.76.9,1,10.69,2.17,21.36-8.76,28.47-1.6,1-3.74,4.35-3.35,4.85,11.58,15,14.17,35.48,29.22,48.35-10.89,6.38-21.78,12.77-34.38,15.27-3.81-19.22-.53-39.13-5.75-58.24-3-10.83-6.48-19.87-20.78-18.89C170.94,239,164.93,234.81,161,228.76Z"/><path class="cls-6" d="M134.73,186c-15.5-21.92-16.53-38.89-3.39-55.89,15-19.38,32.17-24.53,54.21-16.23,17.13,6.44,27.63,35,21.47,58.34-4.41,7.91-9.67,5-12.81-.24-10.89-18.14-26.93-11.71-42-9.36-4.6.72-6.75,5.49-8.69,9.6C141.21,177.21,140.2,183.05,134.73,186Z"/><path class="cls-7" d="M134.73,186c2.5-8.33,2.29-17.25,7.81-25,7.44-10.39,21.7,1.55,28.31-9.67,7.48,8.43,25.94-.16,27.37,17.91.52,6.47,5.2,3.89,8.8,2.93q0,4.27,0,8.55c-5.76,3.2-6.08,8.37-5,14-1.39,13-7.73,22.59-19.79,28.13-6.07,1.61-12.1,1.88-18.06-.53l-22.67-23.2C141.47,193.67,138.78,189.5,134.73,186Z"/><path class="cls-8" d="M181.64,219.3a40.18,40.18,0,0,0,16.3-27.47c2.24-2,4.51-2,6.8-.09,14,8.49,29.45,13.53,44.41,19.75-9.69.72-19.69.28-27.73,7.29l-26.84,3.65c-3.94,2.13-7.91,3.92-12.34,1.28Q179.75,221.81,181.64,219.3Z"/><path class="cls-9" d="M204.74,191.74l-6.8.09c.28-5.92-.94-13.07,9-11Q205.86,186.26,204.74,191.74Z"/><path class="cls-10" d="M181.64,219.3c0,.68-.07,1.37-.11,2-1.74,5.56-5.22,7-10.42,4.4l-6.77-.43c-.11-1-.19-1.92-.26-2.89Z"/><path class="cls-11" d="M171.11,225.75l10.42-4.4,13.05,1.07C185.05,238.8,183.34,239.05,171.11,225.75Z"/><path class="cls-2" d="M161,12A149,149,0,0,1,266.36,266.36,149,149,0,0,1,55.64,55.64,148,148,0,0,1,161,12m0-12A161,161,0,1,0,322,161,161,161,0,0,0,161,0Z"/></svg>