<svg id="Layer_1" data-name="Layer 1" xmlns="http://www.w3.org/2000/svg" viewBox="0 0 324 324"><defs><style>.cls-1{fill:#8e4949;}.cls-2{fill:#ce2424;}.cls-3{fill:#999;}.cls-4{fill:#e5e5e5;}.cls-5{fill:#ededed;}.cls-6{fill:#c99e89;}.cls-7{fill:#cfa78e;}.cls-8{fill:#fff;}.cls-10,.cls-9{fill:none;stroke-miterlimit:10;}.cls-9{stroke:#fff;stroke-width:6px;}.cls-10{stroke:#a8a8a8;stroke-width:12px;}.cls-11{fill:#a8a8a8;}.cls-12{fill:#bc9682;}</style></defs><title>saruman</title><circle class="cls-1" cx="162" cy="162" r="156"/><path class="cls-2" d="M162,12A150,150,0,0,1,268.07,268.07,150,150,0,0,1,55.93,55.93,149,149,0,0,1,162,12m0-12A162,162,0,1,0,324,162,162,162,0,0,0,162,0Z"/><polygon class="cls-3" points="257.63 128.23 258.81 113.27 258.81 98.26 263.42 114.42 263.43 128.52 257.63 128.23"/><polygon class="cls-4" points="117.14 316.52 176.76 161.06 263.91 268.62 259.96 281.79 243.5 296.46 206 314 161 318 117.14 316.52"/><polygon class="cls-5" points="27 242 18 230 130.45 155.07 139.27 297.9 139.81 317.57 125.57 313.72 72 288 33 255 27 242"/><rect class="cls-6" x="102.03" y="86.72" width="88.14" height="96.96" rx="8.89"/><path class="cls-7" d="M161.74,179.35H128.48c-7.71,0-14-5.92-14-13.22v-2a12.65,12.65,0,0,1,1.89-6.64h0A21.84,21.84,0,0,0,118.86,140L115,126.45a12.53,12.53,0,0,1-.48-3.44v-9.5c0-7.3,6.25-13.22,14-13.22h33.26c7.71,0,14,5.92,14,13.22v52.62C175.7,173.43,169.45,179.35,161.74,179.35Z"/><path class="cls-8" d="M140.17,306.21l-15.31-66.57a105.55,105.55,0,0,0-5.61-17.39l-18.85-44.8a4.66,4.66,0,0,1,4.46-6.45l78.52,2a10.7,10.7,0,0,1,9.84,14.38l-7.06,19h0a22.56,22.56,0,0,0-22.81,26.72l.87,4.48a66.63,66.63,0,0,1-3,35.81l-12.28,33A4.67,4.67,0,0,1,140.17,306.21Z"/><path class="cls-9" d="M164.19,172.72c0,3.74-7.58,6.77-16.93,6.77s-16.94-3-16.94-6.77,7.34-3.77,16.94-6.77C156.18,163.15,164.19,169,164.19,172.72Z"/><ellipse class="cls-8" cx="261.11" cy="115.58" rx="9.23" ry="21.93"/><line class="cls-10" x1="261.72" y1="131.67" x2="266.88" y2="279.48"/><path class="cls-7" d="M256.28,253.52c0,4.64,4,13.53,5,17.35,2.08,8.59,2.7,9.92,7.44,9.92,6.84,0,12.39-12.21,12.39-27.27s-5.55-27.27-12.39-27.27c-5.3,0-5.67,9.54-7.44,19.83C260.72,249.09,256.28,250.12,256.28,253.52Z"/><polygon class="cls-11" points="255.01 135.52 267.69 134.99 279.71 118.32 274.14 95.45 272.74 117.45 267.31 125.77 255.78 126.24 249.49 113.8 247.66 97.7 244.97 116.29 255.01 135.52"/><path class="cls-8" d="M221.42,272.81,200.1,76.64A8.1,8.1,0,0,0,192,69.41H108.61a8.09,8.09,0,0,0-7.84,6L54,253.32c-.78,3-.14,6.47,2.19,8.41l.35-.34c3.21,2.68,25.05,3.89,36.08,2a8.11,8.11,0,0,0,6.67-7.28l13-147a7.62,7.62,0,0,1,2.19-4.86,7.51,7.51,0,0,1,4.75-2.13l57.62-3.86a7.68,7.68,0,0,1,8.11,7.14l-1.77,172.88c.32,4.05,19.21,3.54,23.18,3.54h7A8.09,8.09,0,0,0,221.42,272.81Z"/><path class="cls-2" d="M162,12A150,150,0,0,1,268.07,268.07,150,150,0,0,1,55.93,55.93,149,149,0,0,1,162,12m0-12A162,162,0,1,0,324,162,162,162,0,0,0,162,0Z"/><ellipse class="cls-12" cx="159" cy="128.5" rx="7" ry="2.5"/><ellipse class="cls-12" cx="135" cy="128.5" rx="7" ry="2.5"/><ellipse class="cls-12" cx="136.38" cy="122.84" rx="1.02" ry="7" transform="translate(-32.48 194.77) rotate(-65.08)"/><ellipse class="cls-12" cx="157.38" cy="122.84" rx="7" ry="1.02" transform="translate(-37.1 77.74) rotate(-24.92)"/></svg>