<svg id="Layer_1" data-name="Layer 1" xmlns="http://www.w3.org/2000/svg" viewBox="0 0 322 322"><defs><style>.cls-1{fill:#8e4949;}.cls-2{fill:#ce2424;}.cls-3{fill:#444;}.cls-4{fill:#2b2b2b;}.cls-5{fill:#dbd503;}.cls-6{fill:#ff0;}</style></defs><title>Artboard 3</title><circle class="cls-1" cx="161" cy="161" r="155"/><path class="cls-2" d="M161,12A149,149,0,0,1,266.36,266.36,149,149,0,0,1,55.64,55.64,148,148,0,0,1,161,12m0-12A161,161,0,1,0,322,161,161,161,0,0,0,161,0Z"/><g id="spider"><circle class="cls-3" cx="117.8" cy="147.8" r="87.8"/><circle class="cls-4" cx="122.2" cy="147.8" r="84.12"/><circle class="cls-3" cx="198.61" cy="147.8" r="87.8"/><circle class="cls-4" cx="192" cy="147.06" r="82.65"/><circle class="cls-5" cx="107.88" cy="101.88" r="17.63"/><circle class="cls-6" cx="105.67" cy="101.88" r="15.43"/><circle class="cls-5" cx="198.98" cy="101.88" r="17.63"/><circle class="cls-6" cx="196.78" cy="101.88" r="15.43"/><circle class="cls-5" cx="234.24" cy="105.55" r="12.49"/><circle class="cls-6" cx="232.68" cy="105.55" r="10.93"/><circle class="cls-5" cx="215.88" cy="134.2" r="12.49"/><circle class="cls-6" cx="214.32" cy="134.2" r="10.93"/><circle class="cls-5" cx="181.35" cy="134.2" r="12.49"/><circle class="cls-6" cx="179.79" cy="134.2" r="10.93"/><circle class="cls-5" cx="125.51" cy="132" r="12.49"/><circle class="cls-6" cx="123.95" cy="132" r="10.93"/><circle class="cls-5" cx="87.31" cy="134.2" r="12.49"/><circle class="cls-6" cx="85.74" cy="134.2" r="10.93"/><circle class="cls-5" cx="69.67" cy="105.55" r="12.49"/><circle class="cls-6" cx="68.11" cy="105.55" r="10.93"/><path class="cls-3" d="M177.31,221.2l4.23,1.15a37.81,37.81,0,0,0,21.52-.48l8.13-2.61a.93.93,0,0,1,1.18,1.18L195.3,272.77a39.75,39.75,0,0,1-17.09,22.09L150.49,312l22.78-46.29,2.86-43.66A.93.93,0,0,1,177.31,221.2Z"/><path class="cls-3" d="M117.31,223.71l-6.4.7a33.06,33.06,0,0,1-15.81-2.14l-5.95-2.37a1.07,1.07,0,0,0-1.45,1.19l8.91,48.26a31.9,31.9,0,0,0,9.88,17.76l17.15,15.59-9.93-35.44,4.78-42.36A1.07,1.07,0,0,0,117.31,223.71Z"/></g><path class="cls-2" d="M161,12A149,149,0,0,1,266.36,266.36,149,149,0,0,1,55.64,55.64,148,148,0,0,1,161,12m0-12A161,161,0,1,0,322,161,161,161,0,0,0,161,0Z"/></svg>