<svg id="Layer_1" data-name="Layer 1" xmlns="http://www.w3.org/2000/svg" width="800" height="2175" viewBox="0 0 800 2175">
  <title>Artboard 1</title>
  <rect x="-0.5" y="1.5" width="800" height="1085" fill="#65ce97"/>
  <rect x="0.5" y="1086.5" width="800" height="1088.5" fill="#59ad7f"/>
  <g>
    <line x1="634" y1="0.43" x2="799.76" y2="0.43" fill="none" stroke="#000" stroke-miterlimit="10"/>
    <line x1="634" y1="30.61" x2="799.76" y2="30.61" fill="none" stroke="#000" stroke-miterlimit="10"/>
    <line x1="634" y1="60.8" x2="799.76" y2="60.8" fill="none" stroke="#000" stroke-miterlimit="10"/>
    <line x1="634" y1="90.98" x2="799.76" y2="90.98" fill="none" stroke="#000" stroke-miterlimit="10"/>
    <line x1="634" y1="121.17" x2="799.76" y2="121.17" fill="none" stroke="#000" stroke-miterlimit="10"/>
    <line x1="634" y1="151.35" x2="799.76" y2="151.35" fill="none" stroke="#000" stroke-miterlimit="10"/>
    <line x1="634" y1="181.54" x2="799.76" y2="181.54" fill="none" stroke="#000" stroke-miterlimit="10"/>
    <line x1="634" y1="211.72" x2="799.76" y2="211.72" fill="none" stroke="#000" stroke-miterlimit="10"/>
    <line x1="634" y1="241.9" x2="799.76" y2="241.9" fill="none" stroke="#000" stroke-miterlimit="10"/>
    <line x1="634" y1="272.09" x2="799.76" y2="272.09" fill="none" stroke="#000" stroke-miterlimit="10"/>
    <line x1="634" y1="302.27" x2="799.76" y2="302.27" fill="none" stroke="#000" stroke-miterlimit="10"/>
    <line x1="634" y1="332.46" x2="799.76" y2="332.46" fill="none" stroke="#000" stroke-miterlimit="10"/>
    <line x1="634" y1="362.64" x2="799.76" y2="362.64" fill="none" stroke="#000" stroke-miterlimit="10"/>
    <line x1="634" y1="392.83" x2="799.76" y2="392.83" fill="none" stroke="#000" stroke-miterlimit="10"/>
    <line x1="634" y1="423.01" x2="799.76" y2="423.01" fill="none" stroke="#000" stroke-miterlimit="10"/>
    <line x1="634" y1="453.2" x2="799.76" y2="453.2" fill="none" stroke="#000" stroke-miterlimit="10"/>
    <line x1="634" y1="483.38" x2="799.76" y2="483.38" fill="none" stroke="#000" stroke-miterlimit="10"/>
    <line x1="634" y1="513.57" x2="799.76" y2="513.57" fill="none" stroke="#000" stroke-miterlimit="10"/>
    <line x1="634" y1="543.75" x2="799.76" y2="543.75" fill="none" stroke="#000" stroke-miterlimit="10"/>
    <line x1="634" y1="573.94" x2="799.76" y2="573.94" fill="none" stroke="#000" stroke-miterlimit="10"/>
    <line x1="634" y1="604.12" x2="799.76" y2="604.12" fill="none" stroke="#000" stroke-miterlimit="10"/>
    <line x1="634" y1="634.31" x2="799.76" y2="634.31" fill="none" stroke="#000" stroke-miterlimit="10"/>
    <line x1="634" y1="664.49" x2="799.76" y2="664.49" fill="none" stroke="#000" stroke-miterlimit="10"/>
    <line x1="634" y1="694.68" x2="799.76" y2="694.68" fill="none" stroke="#000" stroke-miterlimit="10"/>
    <line x1="634" y1="724.86" x2="799.76" y2="724.86" fill="none" stroke="#000" stroke-miterlimit="10"/>
    <line x1="634" y1="755.05" x2="799.76" y2="755.05" fill="none" stroke="#000" stroke-miterlimit="10"/>
    <line x1="634" y1="785.23" x2="799.76" y2="785.23" fill="none" stroke="#000" stroke-miterlimit="10"/>
    <line x1="634" y1="815.42" x2="799.76" y2="815.42" fill="none" stroke="#000" stroke-miterlimit="10"/>
    <line x1="634" y1="845.6" x2="799.76" y2="845.6" fill="none" stroke="#000" stroke-miterlimit="10"/>
    <line x1="634" y1="875.79" x2="799.76" y2="875.79" fill="none" stroke="#000" stroke-miterlimit="10"/>
    <line x1="634" y1="905.97" x2="799.76" y2="905.97" fill="none" stroke="#000" stroke-miterlimit="10"/>
    <line x1="634" y1="936.15" x2="799.76" y2="936.15" fill="none" stroke="#000" stroke-miterlimit="10"/>
    <line x1="634" y1="966.34" x2="799.76" y2="966.34" fill="none" stroke="#000" stroke-miterlimit="10"/>
    <line x1="634" y1="996.52" x2="799.76" y2="996.52" fill="none" stroke="#000" stroke-miterlimit="10"/>
    <line x1="634" y1="1026.71" x2="799.76" y2="1026.71" fill="none" stroke="#000" stroke-miterlimit="10"/>
    <line x1="634" y1="1056.89" x2="799.76" y2="1056.89" fill="none" stroke="#000" stroke-miterlimit="10"/>
    <line x1="634" y1="1087.08" x2="799.76" y2="1087.08" fill="none" stroke="#000" stroke-miterlimit="10"/>
    <line x1="634" y1="1117.26" x2="799.76" y2="1117.26" fill="none" stroke="#000" stroke-miterlimit="10"/>
    <line x1="634" y1="1147.45" x2="799.76" y2="1147.45" fill="none" stroke="#000" stroke-miterlimit="10"/>
    <line x1="634" y1="1177.63" x2="799.76" y2="1177.63" fill="none" stroke="#000" stroke-miterlimit="10"/>
    <line x1="634" y1="1207.82" x2="799.76" y2="1207.82" fill="none" stroke="#000" stroke-miterlimit="10"/>
    <line x1="634" y1="1238" x2="799.76" y2="1238" fill="none" stroke="#000" stroke-miterlimit="10"/>
    <line x1="634" y1="1268.19" x2="799.76" y2="1268.19" fill="none" stroke="#000" stroke-miterlimit="10"/>
    <line x1="634" y1="1298.37" x2="799.76" y2="1298.37" fill="none" stroke="#000" stroke-miterlimit="10"/>
    <line x1="634" y1="1328.56" x2="799.76" y2="1328.56" fill="none" stroke="#000" stroke-miterlimit="10"/>
    <line x1="634" y1="1358.74" x2="799.76" y2="1358.74" fill="none" stroke="#000" stroke-miterlimit="10"/>
    <line x1="634" y1="1388.93" x2="799.76" y2="1388.93" fill="none" stroke="#000" stroke-miterlimit="10"/>
  </g>
  <g>
    <line y1="0.43" x2="165.76" y2="0.43" fill="none" stroke="#000" stroke-miterlimit="10"/>
    <line y1="30.61" x2="165.76" y2="30.61" fill="none" stroke="#000" stroke-miterlimit="10"/>
    <line y1="60.8" x2="165.76" y2="60.8" fill="none" stroke="#000" stroke-miterlimit="10"/>
    <line y1="90.98" x2="165.76" y2="90.98" fill="none" stroke="#000" stroke-miterlimit="10"/>
    <line y1="121.17" x2="165.76" y2="121.17" fill="none" stroke="#000" stroke-miterlimit="10"/>
    <line y1="151.35" x2="165.76" y2="151.35" fill="none" stroke="#000" stroke-miterlimit="10"/>
    <line y1="181.54" x2="165.76" y2="181.54" fill="none" stroke="#000" stroke-miterlimit="10"/>
    <line y1="211.72" x2="165.76" y2="211.72" fill="none" stroke="#000" stroke-miterlimit="10"/>
    <line y1="241.9" x2="165.76" y2="241.9" fill="none" stroke="#000" stroke-miterlimit="10"/>
    <line y1="272.09" x2="165.76" y2="272.09" fill="none" stroke="#000" stroke-miterlimit="10"/>
    <line y1="302.27" x2="165.76" y2="302.27" fill="none" stroke="#000" stroke-miterlimit="10"/>
    <line y1="332.46" x2="165.76" y2="332.46" fill="none" stroke="#000" stroke-miterlimit="10"/>
    <line y1="362.64" x2="165.76" y2="362.64" fill="none" stroke="#000" stroke-miterlimit="10"/>
    <line y1="392.83" x2="165.76" y2="392.83" fill="none" stroke="#000" stroke-miterlimit="10"/>
    <line y1="423.01" x2="165.76" y2="423.01" fill="none" stroke="#000" stroke-miterlimit="10"/>
    <line y1="453.2" x2="165.76" y2="453.2" fill="none" stroke="#000" stroke-miterlimit="10"/>
    <line y1="483.38" x2="165.76" y2="483.38" fill="none" stroke="#000" stroke-miterlimit="10"/>
    <line y1="513.57" x2="165.76" y2="513.57" fill="none" stroke="#000" stroke-miterlimit="10"/>
    <line y1="543.75" x2="165.76" y2="543.75" fill="none" stroke="#000" stroke-miterlimit="10"/>
    <line y1="573.94" x2="165.76" y2="573.94" fill="none" stroke="#000" stroke-miterlimit="10"/>
    <line y1="604.12" x2="165.76" y2="604.12" fill="none" stroke="#000" stroke-miterlimit="10"/>
    <line y1="634.31" x2="165.76" y2="634.31" fill="none" stroke="#000" stroke-miterlimit="10"/>
    <line y1="664.49" x2="165.76" y2="664.49" fill="none" stroke="#000" stroke-miterlimit="10"/>
    <line y1="694.68" x2="165.76" y2="694.68" fill="none" stroke="#000" stroke-miterlimit="10"/>
    <line y1="724.86" x2="165.76" y2="724.86" fill="none" stroke="#000" stroke-miterlimit="10"/>
    <line y1="755.05" x2="165.76" y2="755.05" fill="none" stroke="#000" stroke-miterlimit="10"/>
    <line y1="785.23" x2="165.76" y2="785.23" fill="none" stroke="#000" stroke-miterlimit="10"/>
    <line y1="815.42" x2="165.76" y2="815.42" fill="none" stroke="#000" stroke-miterlimit="10"/>
    <line y1="845.6" x2="165.76" y2="845.6" fill="none" stroke="#000" stroke-miterlimit="10"/>
    <line y1="875.79" x2="165.76" y2="875.79" fill="none" stroke="#000" stroke-miterlimit="10"/>
    <line y1="905.97" x2="165.76" y2="905.97" fill="none" stroke="#000" stroke-miterlimit="10"/>
    <line y1="936.15" x2="165.76" y2="936.15" fill="none" stroke="#000" stroke-miterlimit="10"/>
    <line y1="966.34" x2="165.76" y2="966.34" fill="none" stroke="#000" stroke-miterlimit="10"/>
    <line y1="996.52" x2="165.76" y2="996.52" fill="none" stroke="#000" stroke-miterlimit="10"/>
    <line y1="1026.71" x2="165.76" y2="1026.71" fill="none" stroke="#000" stroke-miterlimit="10"/>
    <line y1="1056.89" x2="165.76" y2="1056.89" fill="none" stroke="#000" stroke-miterlimit="10"/>
    <line y1="1087.08" x2="165.76" y2="1087.08" fill="none" stroke="#000" stroke-miterlimit="10"/>
    <line y1="1117.26" x2="165.76" y2="1117.26" fill="none" stroke="#000" stroke-miterlimit="10"/>
    <line y1="1147.45" x2="165.76" y2="1147.45" fill="none" stroke="#000" stroke-miterlimit="10"/>
    <line y1="1177.63" x2="165.76" y2="1177.63" fill="none" stroke="#000" stroke-miterlimit="10"/>
    <line y1="1207.82" x2="165.76" y2="1207.82" fill="none" stroke="#000" stroke-miterlimit="10"/>
    <line y1="1238" x2="165.76" y2="1238" fill="none" stroke="#000" stroke-miterlimit="10"/>
    <line y1="1268.19" x2="165.76" y2="1268.19" fill="none" stroke="#000" stroke-miterlimit="10"/>
    <line y1="1298.37" x2="165.76" y2="1298.37" fill="none" stroke="#000" stroke-miterlimit="10"/>
    <line y1="1328.56" x2="165.76" y2="1328.56" fill="none" stroke="#000" stroke-miterlimit="10"/>
    <line y1="1358.74" x2="165.76" y2="1358.74" fill="none" stroke="#000" stroke-miterlimit="10"/>
    <line y1="1388.93" x2="165.76" y2="1388.93" fill="none" stroke="#000" stroke-miterlimit="10"/>
  </g>
  <text transform="translate(698.79 29.37)" font-size="15" font-family="MyriadPro-Regular, Myriad Pro">00:05</text>
  <text transform="translate(698.79 59.37)" font-size="15" font-family="MyriadPro-Regular, Myriad Pro">00:10</text>
  <text transform="translate(698.79 89.37)" font-size="15" font-family="MyriadPro-Regular, Myriad Pro">00:15</text>
  <text transform="translate(698.79 119.37)" font-size="15" font-family="MyriadPro-Regular, Myriad Pro">00:20</text>
  <text transform="translate(698.79 149.37)" font-size="15" font-family="MyriadPro-Regular, Myriad Pro">00:25</text>
  <text transform="translate(698.79 179.37)" font-size="15" font-family="MyriadPro-Regular, Myriad Pro">00:30</text>
  <text transform="translate(698.79 209.37)" font-size="15" font-family="MyriadPro-Regular, Myriad Pro">00:35</text>
  <text transform="translate(698.79 239.37)" font-size="15" font-family="MyriadPro-Regular, Myriad Pro">00:40</text>
  <text transform="translate(698.79 269.37)" font-size="15" font-family="MyriadPro-Regular, Myriad Pro">00:45</text>
  <text transform="translate(698.79 299.37)" font-size="15" font-family="MyriadPro-Regular, Myriad Pro">00:50</text>
  <text transform="translate(698.79 329.37)" font-size="15" font-family="MyriadPro-Regular, Myriad Pro">00:55</text>
  <text transform="translate(698.79 360.37)" font-size="15" font-family="MyriadPro-Regular, Myriad Pro">01:00</text>
  <text transform="translate(698.79 391.37)" font-size="15" font-family="MyriadPro-Regular, Myriad Pro">01:05</text>
  <text transform="translate(698.79 421.37)" font-size="15" font-family="MyriadPro-Regular, Myriad Pro">01:10</text>
  <text transform="translate(698.79 451.37)" font-size="15" font-family="MyriadPro-Regular, Myriad Pro">01:15</text>
  <text transform="translate(698.79 481.37)" font-size="15" font-family="MyriadPro-Regular, Myriad Pro">01:20</text>
  <text transform="translate(698.79 511.37)" font-size="15" font-family="MyriadPro-Regular, Myriad Pro">01:25</text>
  <text transform="translate(698.79 542.37)" font-size="15" font-family="MyriadPro-Regular, Myriad Pro">01:30</text>
  <text transform="translate(698.79 572.37)" font-size="15" font-family="MyriadPro-Regular, Myriad Pro">01:35</text>
  <text transform="translate(698.79 602.37)" font-size="15" font-family="MyriadPro-Regular, Myriad Pro">01:40</text>
  <text transform="translate(698.79 632.37)" font-size="15" font-family="MyriadPro-Regular, Myriad Pro">01:45</text>
  <text transform="translate(698.79 662.37)" font-size="15" font-family="MyriadPro-Regular, Myriad Pro">01:50</text>
  <text transform="translate(698.79 692.37)" font-size="15" font-family="MyriadPro-Regular, Myriad Pro">01:55</text>
  <text transform="translate(698.79 723.37)" font-size="15" font-family="MyriadPro-Regular, Myriad Pro">02:00</text>
  <text transform="translate(698.79 752.37)" font-size="15" font-family="MyriadPro-Regular, Myriad Pro">02:05</text>
  <text transform="translate(698.79 782.37)" font-size="15" font-family="MyriadPro-Regular, Myriad Pro">02:10</text>
  <text transform="translate(698.79 812.37)" font-size="15" font-family="MyriadPro-Regular, Myriad Pro">02:15</text>
  <text transform="translate(698.79 842.37)" font-size="15" font-family="MyriadPro-Regular, Myriad Pro">02:20</text>
  <text transform="translate(698.79 872.37)" font-size="15" font-family="MyriadPro-Regular, Myriad Pro">02:25</text>
  <text transform="translate(698.79 903.37)" font-size="15" font-family="MyriadPro-Regular, Myriad Pro">02:30</text>
  <text transform="translate(698.79 933.37)" font-size="15" font-family="MyriadPro-Regular, Myriad Pro">02:35</text>
  <text transform="translate(698.79 963.37)" font-size="15" font-family="MyriadPro-Regular, Myriad Pro">02:40</text>
  <text transform="translate(698.79 993.37)" font-size="15" font-family="MyriadPro-Regular, Myriad Pro">02:45</text>
  <text transform="translate(698.79 1023.37)" font-size="15" font-family="MyriadPro-Regular, Myriad Pro">02:50</text>
  <text transform="translate(698.79 1053.37)" font-size="15" font-family="MyriadPro-Regular, Myriad Pro">02:55</text>
  <text transform="translate(698.79 1084.37)" font-size="15" font-family="MyriadPro-Regular, Myriad Pro">03:00</text>
  <g>
    <line x1="633.51" y1="1086.5" x2="799.28" y2="1086.5" fill="none" stroke="#000" stroke-miterlimit="10"/>
    <line x1="633.51" y1="1116.68" x2="799.28" y2="1116.68" fill="none" stroke="#000" stroke-miterlimit="10"/>
    <line x1="633.51" y1="1146.87" x2="799.28" y2="1146.87" fill="none" stroke="#000" stroke-miterlimit="10"/>
    <line x1="633.51" y1="1177.05" x2="799.28" y2="1177.05" fill="none" stroke="#000" stroke-miterlimit="10"/>
    <line x1="633.51" y1="1207.24" x2="799.28" y2="1207.24" fill="none" stroke="#000" stroke-miterlimit="10"/>
    <line x1="633.51" y1="1237.42" x2="799.28" y2="1237.42" fill="none" stroke="#000" stroke-miterlimit="10"/>
    <line x1="633.51" y1="1267.61" x2="799.28" y2="1267.61" fill="none" stroke="#000" stroke-miterlimit="10"/>
    <line x1="633.51" y1="1297.79" x2="799.28" y2="1297.79" fill="none" stroke="#000" stroke-miterlimit="10"/>
    <line x1="633.51" y1="1327.98" x2="799.28" y2="1327.98" fill="none" stroke="#000" stroke-miterlimit="10"/>
    <line x1="633.51" y1="1358.16" x2="799.28" y2="1358.16" fill="none" stroke="#000" stroke-miterlimit="10"/>
    <line x1="633.51" y1="1388.35" x2="799.28" y2="1388.35" fill="none" stroke="#000" stroke-miterlimit="10"/>
    <line x1="633.51" y1="1418.53" x2="799.28" y2="1418.53" fill="none" stroke="#000" stroke-miterlimit="10"/>
    <line x1="633.51" y1="1448.72" x2="799.28" y2="1448.72" fill="none" stroke="#000" stroke-miterlimit="10"/>
    <line x1="633.51" y1="1478.9" x2="799.28" y2="1478.9" fill="none" stroke="#000" stroke-miterlimit="10"/>
    <line x1="633.51" y1="1509.09" x2="799.28" y2="1509.09" fill="none" stroke="#000" stroke-miterlimit="10"/>
    <line x1="633.51" y1="1539.27" x2="799.28" y2="1539.27" fill="none" stroke="#000" stroke-miterlimit="10"/>
    <line x1="633.51" y1="1569.46" x2="799.28" y2="1569.46" fill="none" stroke="#000" stroke-miterlimit="10"/>
    <line x1="633.51" y1="1599.64" x2="799.28" y2="1599.64" fill="none" stroke="#000" stroke-miterlimit="10"/>
    <line x1="633.51" y1="1629.83" x2="799.28" y2="1629.83" fill="none" stroke="#000" stroke-miterlimit="10"/>
    <line x1="633.51" y1="1660.01" x2="799.28" y2="1660.01" fill="none" stroke="#000" stroke-miterlimit="10"/>
    <line x1="633.51" y1="1690.2" x2="799.28" y2="1690.2" fill="none" stroke="#000" stroke-miterlimit="10"/>
    <line x1="633.51" y1="1720.38" x2="799.28" y2="1720.38" fill="none" stroke="#000" stroke-miterlimit="10"/>
    <line x1="633.51" y1="1750.57" x2="799.28" y2="1750.57" fill="none" stroke="#000" stroke-miterlimit="10"/>
    <line x1="633.51" y1="1780.75" x2="799.28" y2="1780.75" fill="none" stroke="#000" stroke-miterlimit="10"/>
    <line x1="633.51" y1="1810.93" x2="799.28" y2="1810.93" fill="none" stroke="#000" stroke-miterlimit="10"/>
    <line x1="633.51" y1="1841.12" x2="799.28" y2="1841.12" fill="none" stroke="#000" stroke-miterlimit="10"/>
    <line x1="633.51" y1="1871.3" x2="799.28" y2="1871.3" fill="none" stroke="#000" stroke-miterlimit="10"/>
    <line x1="633.51" y1="1901.49" x2="799.28" y2="1901.49" fill="none" stroke="#000" stroke-miterlimit="10"/>
    <line x1="633.51" y1="1931.67" x2="799.28" y2="1931.67" fill="none" stroke="#000" stroke-miterlimit="10"/>
    <line x1="633.51" y1="1961.86" x2="799.28" y2="1961.86" fill="none" stroke="#000" stroke-miterlimit="10"/>
    <line x1="633.51" y1="1992.04" x2="799.28" y2="1992.04" fill="none" stroke="#000" stroke-miterlimit="10"/>
    <line x1="633.51" y1="2022.23" x2="799.28" y2="2022.23" fill="none" stroke="#000" stroke-miterlimit="10"/>
    <line x1="633.51" y1="2052.41" x2="799.28" y2="2052.41" fill="none" stroke="#000" stroke-miterlimit="10"/>
    <line x1="633.51" y1="2082.6" x2="799.28" y2="2082.6" fill="none" stroke="#000" stroke-miterlimit="10"/>
    <line x1="633.51" y1="2112.78" x2="799.28" y2="2112.78" fill="none" stroke="#000" stroke-miterlimit="10"/>
    <line x1="633.51" y1="2142.97" x2="799.28" y2="2142.97" fill="none" stroke="#000" stroke-miterlimit="10"/>
    <line x1="633.51" y1="2173.15" x2="799.28" y2="2173.15" fill="none" stroke="#000" stroke-miterlimit="10"/>
  </g>
  <g>
    <line x1="-0.49" y1="1084.5" x2="165.28" y2="1084.5" fill="none" stroke="#000" stroke-miterlimit="10"/>
    <line x1="-0.49" y1="1114.68" x2="165.28" y2="1114.68" fill="none" stroke="#000" stroke-miterlimit="10"/>
    <line x1="-0.49" y1="1144.87" x2="165.28" y2="1144.87" fill="none" stroke="#000" stroke-miterlimit="10"/>
    <line x1="-0.49" y1="1175.05" x2="165.28" y2="1175.05" fill="none" stroke="#000" stroke-miterlimit="10"/>
    <line x1="-0.49" y1="1205.24" x2="165.28" y2="1205.24" fill="none" stroke="#000" stroke-miterlimit="10"/>
    <line x1="-0.49" y1="1235.42" x2="165.28" y2="1235.42" fill="none" stroke="#000" stroke-miterlimit="10"/>
    <line x1="-0.49" y1="1265.61" x2="165.28" y2="1265.61" fill="none" stroke="#000" stroke-miterlimit="10"/>
    <line x1="-0.49" y1="1295.79" x2="165.28" y2="1295.79" fill="none" stroke="#000" stroke-miterlimit="10"/>
    <line x1="-0.49" y1="1325.98" x2="165.28" y2="1325.98" fill="none" stroke="#000" stroke-miterlimit="10"/>
    <line x1="-0.49" y1="1356.16" x2="165.28" y2="1356.16" fill="none" stroke="#000" stroke-miterlimit="10"/>
    <line x1="-0.49" y1="1386.35" x2="165.28" y2="1386.35" fill="none" stroke="#000" stroke-miterlimit="10"/>
    <line x1="-0.49" y1="1416.53" x2="165.28" y2="1416.53" fill="none" stroke="#000" stroke-miterlimit="10"/>
    <line x1="-0.49" y1="1446.72" x2="165.28" y2="1446.72" fill="none" stroke="#000" stroke-miterlimit="10"/>
    <line x1="-0.49" y1="1476.9" x2="165.28" y2="1476.9" fill="none" stroke="#000" stroke-miterlimit="10"/>
    <line x1="-0.49" y1="1507.09" x2="165.28" y2="1507.09" fill="none" stroke="#000" stroke-miterlimit="10"/>
    <line x1="-0.49" y1="1537.27" x2="165.28" y2="1537.27" fill="none" stroke="#000" stroke-miterlimit="10"/>
    <line x1="-0.49" y1="1567.46" x2="165.28" y2="1567.46" fill="none" stroke="#000" stroke-miterlimit="10"/>
    <line x1="-0.49" y1="1597.64" x2="165.28" y2="1597.64" fill="none" stroke="#000" stroke-miterlimit="10"/>
    <line x1="-0.49" y1="1627.83" x2="165.28" y2="1627.83" fill="none" stroke="#000" stroke-miterlimit="10"/>
    <line x1="-0.49" y1="1658.01" x2="165.28" y2="1658.01" fill="none" stroke="#000" stroke-miterlimit="10"/>
    <line x1="-0.49" y1="1688.2" x2="165.28" y2="1688.2" fill="none" stroke="#000" stroke-miterlimit="10"/>
    <line x1="-0.49" y1="1718.38" x2="165.28" y2="1718.38" fill="none" stroke="#000" stroke-miterlimit="10"/>
    <line x1="-0.49" y1="1748.57" x2="165.28" y2="1748.57" fill="none" stroke="#000" stroke-miterlimit="10"/>
    <line x1="-0.49" y1="1778.75" x2="165.28" y2="1778.75" fill="none" stroke="#000" stroke-miterlimit="10"/>
    <line x1="-0.49" y1="1808.93" x2="165.28" y2="1808.93" fill="none" stroke="#000" stroke-miterlimit="10"/>
    <line x1="-0.49" y1="1839.12" x2="165.28" y2="1839.12" fill="none" stroke="#000" stroke-miterlimit="10"/>
    <line x1="-0.49" y1="1869.3" x2="165.28" y2="1869.3" fill="none" stroke="#000" stroke-miterlimit="10"/>
    <line x1="-0.49" y1="1899.49" x2="165.28" y2="1899.49" fill="none" stroke="#000" stroke-miterlimit="10"/>
    <line x1="-0.49" y1="1929.67" x2="165.28" y2="1929.67" fill="none" stroke="#000" stroke-miterlimit="10"/>
    <line x1="-0.49" y1="1959.86" x2="165.28" y2="1959.86" fill="none" stroke="#000" stroke-miterlimit="10"/>
    <line x1="-0.49" y1="1990.04" x2="165.28" y2="1990.04" fill="none" stroke="#000" stroke-miterlimit="10"/>
    <line x1="-0.49" y1="2020.23" x2="165.28" y2="2020.23" fill="none" stroke="#000" stroke-miterlimit="10"/>
    <line x1="-0.49" y1="2050.41" x2="165.28" y2="2050.41" fill="none" stroke="#000" stroke-miterlimit="10"/>
    <line x1="-0.49" y1="2080.6" x2="165.28" y2="2080.6" fill="none" stroke="#000" stroke-miterlimit="10"/>
    <line x1="-0.49" y1="2110.78" x2="165.28" y2="2110.78" fill="none" stroke="#000" stroke-miterlimit="10"/>
    <line x1="-0.49" y1="2140.97" x2="165.28" y2="2140.97" fill="none" stroke="#000" stroke-miterlimit="10"/>
    <line x1="-0.49" y1="2171.15" x2="165.28" y2="2171.15" fill="none" stroke="#000" stroke-miterlimit="10"/>
  </g>
  <text transform="translate(698.3 1115.45)" font-size="15" font-family="MyriadPro-Regular, Myriad Pro">00:05</text>
  <text transform="translate(698.3 1145.45)" font-size="15" font-family="MyriadPro-Regular, Myriad Pro">00:10</text>
  <text transform="translate(698.3 1175.45)" font-size="15" font-family="MyriadPro-Regular, Myriad Pro">00:15</text>
  <text transform="translate(698.3 1205.45)" font-size="15" font-family="MyriadPro-Regular, Myriad Pro">00:20</text>
  <text transform="translate(698.3 1235.45)" font-size="15" font-family="MyriadPro-Regular, Myriad Pro">00:25</text>
  <text transform="translate(698.3 1265.45)" font-size="15" font-family="MyriadPro-Regular, Myriad Pro">00:30</text>
  <text transform="translate(698.3 1295.45)" font-size="15" font-family="MyriadPro-Regular, Myriad Pro">00:35</text>
  <text transform="translate(698.3 1325.45)" font-size="15" font-family="MyriadPro-Regular, Myriad Pro">00:40</text>
  <text transform="translate(698.3 1355.45)" font-size="15" font-family="MyriadPro-Regular, Myriad Pro">00:45</text>
  <text transform="translate(698.3 1385.45)" font-size="15" font-family="MyriadPro-Regular, Myriad Pro">00:50</text>
  <text transform="translate(698.3 1415.45)" font-size="15" font-family="MyriadPro-Regular, Myriad Pro">00:55</text>
  <text transform="translate(698.3 1446.45)" font-size="15" font-family="MyriadPro-Regular, Myriad Pro">01:00</text>
  <text transform="translate(698.3 1477.45)" font-size="15" font-family="MyriadPro-Regular, Myriad Pro">01:05</text>
  <text transform="translate(698.3 1507.45)" font-size="15" font-family="MyriadPro-Regular, Myriad Pro">01:10</text>
  <text transform="translate(698.3 1537.45)" font-size="15" font-family="MyriadPro-Regular, Myriad Pro">01:15</text>
  <text transform="translate(698.3 1567.45)" font-size="15" font-family="MyriadPro-Regular, Myriad Pro">01:20</text>
  <text transform="translate(698.3 1597.45)" font-size="15" font-family="MyriadPro-Regular, Myriad Pro">01:25</text>
  <text transform="translate(698.3 1628.45)" font-size="15" font-family="MyriadPro-Regular, Myriad Pro">01:30</text>
  <text transform="translate(698.3 1658.45)" font-size="15" font-family="MyriadPro-Regular, Myriad Pro">01:35</text>
  <text transform="translate(698.3 1688.45)" font-size="15" font-family="MyriadPro-Regular, Myriad Pro">01:40</text>
  <text transform="translate(698.3 1718.45)" font-size="15" font-family="MyriadPro-Regular, Myriad Pro">01:45</text>
  <text transform="translate(698.3 1748.45)" font-size="15" font-family="MyriadPro-Regular, Myriad Pro">01:50</text>
  <text transform="translate(698.3 1778.45)" font-size="15" font-family="MyriadPro-Regular, Myriad Pro">01:55</text>
  <text transform="translate(698.3 1809.45)" font-size="15" font-family="MyriadPro-Regular, Myriad Pro">02:00</text>
  <text transform="translate(698.3 1838.45)" font-size="15" font-family="MyriadPro-Regular, Myriad Pro">02:05</text>
  <text transform="translate(698.3 1868.45)" font-size="15" font-family="MyriadPro-Regular, Myriad Pro">02:10</text>
  <text transform="translate(698.3 1898.45)" font-size="15" font-family="MyriadPro-Regular, Myriad Pro">02:15</text>
  <text transform="translate(698.3 1928.45)" font-size="15" font-family="MyriadPro-Regular, Myriad Pro">02:20</text>
  <text transform="translate(698.3 1958.45)" font-size="15" font-family="MyriadPro-Regular, Myriad Pro">02:25</text>
  <text transform="translate(698.3 1989.45)" font-size="15" font-family="MyriadPro-Regular, Myriad Pro">02:30</text>
  <text transform="translate(698.3 2019.45)" font-size="15" font-family="MyriadPro-Regular, Myriad Pro">02:35</text>
  <text transform="translate(698.3 2049.45)" font-size="15" font-family="MyriadPro-Regular, Myriad Pro">02:40</text>
  <text transform="translate(698.3 2079.45)" font-size="15" font-family="MyriadPro-Regular, Myriad Pro">02:45</text>
  <text transform="translate(698.3 2109.45)" font-size="15" font-family="MyriadPro-Regular, Myriad Pro">02:50</text>
  <text transform="translate(698.3 2139.45)" font-size="15" font-family="MyriadPro-Regular, Myriad Pro">02:55</text>
  <text transform="translate(698.3 2170.45)" font-size="15" font-family="MyriadPro-Regular, Myriad Pro">03:00</text>
  <circle id="battle1" cx="417" cy="19" r="16.5" fill="#fff" stroke="#000" stroke-miterlimit="10" stroke-width="2"/>
  <circle id="battle2" cx="417" cy="245" r="16.5" fill="#fff" stroke="#000" stroke-miterlimit="10" stroke-width="2"/>
  <circle id="battle3" cx="417" cy="381" r="16.5" fill="#fff" stroke="#000" stroke-miterlimit="10" stroke-width="2"/>
  <circle id="battle4" cx="417" cy="704" r="16.5" fill="#fff" stroke="#000" stroke-miterlimit="10" stroke-width="2"/>
  <circle id="battle6" cx="416.5" cy="1225.5" r="16.5" fill="#fff" stroke="#000" stroke-miterlimit="10" stroke-width="2"/>
  <circle id="battle7" cx="416.5" cy="1617.5" r="16.5" fill="#fff" stroke="#000" stroke-miterlimit="10" stroke-width="2"/>
  <circle id="battle8" cx="416.5" cy="1887.5" r="16.5" fill="#fff" stroke="#000" stroke-miterlimit="10" stroke-width="2"/>
  <circle id="battle9" cx="416.5" cy="2050.5" r="16.5" fill="#fff" stroke="#000" stroke-miterlimit="10" stroke-width="2"/>
  <circle id="battle5" cx="417" cy="934" r="16.5" fill="#fff" stroke="#000" stroke-miterlimit="10" stroke-width="2"/>
</svg>
