



<?xml version="1.0" encoding="utf-8"?>
<!-- Generator: Adobe Illustrator 24.0.0, SVG Export Plug-In . SVG Version: 6.00 Build 0)  -->
<svg version="1.1" id="Layer_1" xmlns="http://www.w3.org/2000/svg" xmlns:xlink="http://www.w3.org/1999/xlink" x="0px" y="0px"
	 viewBox="0 0 800 3438.1" style="enable-background:new 0 0 800 3438.1;" xml:space="preserve">
<style type="text/css">
	.st0{fill:#00000000;}
	.st1{fill:#00000000;}
	.st2{fill:none;stroke:#000000;stroke-miterlimit:10;}
	.st3{font-family:'ArialMT';}
	.st4{font-size:15px;}
	.st5{fill:#FFFFFF;stroke:#000000;stroke-width:2;stroke-miterlimit:10;}
	.st6{fill:#00000000;}
</style>
<rect x="-0.5" class="st0" width="800" height="1086.5"/>
<rect x="0.5" y="1086.5" class="st1" width="800" height="1088.5"/>
<g>
	<line class="st2" x1="634" y1="0.4" x2="799.8" y2="0.4"/>
	<line class="st2" x1="634" y1="30.6" x2="799.8" y2="30.6"/>
	<line class="st2" x1="634" y1="60.8" x2="799.8" y2="60.8"/>
	<line class="st2" x1="634" y1="91" x2="799.8" y2="91"/>
	<line class="st2" x1="634" y1="121.2" x2="799.8" y2="121.2"/>
	<line class="st2" x1="634" y1="151.3" x2="799.8" y2="151.3"/>
	<line class="st2" x1="634" y1="181.5" x2="799.8" y2="181.5"/>
	<line class="st2" x1="634" y1="211.7" x2="799.8" y2="211.7"/>
	<line class="st2" x1="634" y1="241.9" x2="799.8" y2="241.9"/>
	<line class="st2" x1="634" y1="272.1" x2="799.8" y2="272.1"/>
	<line class="st2" x1="634" y1="302.3" x2="799.8" y2="302.3"/>
	<line class="st2" x1="634" y1="332.5" x2="799.8" y2="332.5"/>
	<line class="st2" x1="634" y1="362.6" x2="799.8" y2="362.6"/>
	<line class="st2" x1="634" y1="392.8" x2="799.8" y2="392.8"/>
	<line class="st2" x1="634" y1="423" x2="799.8" y2="423"/>
	<line class="st2" x1="634" y1="453.2" x2="799.8" y2="453.2"/>
	<line class="st2" x1="634" y1="483.4" x2="799.8" y2="483.4"/>
	<line class="st2" x1="634" y1="513.6" x2="799.8" y2="513.6"/>
	<line class="st2" x1="634" y1="543.8" x2="799.8" y2="543.8"/>
	<line class="st2" x1="634" y1="573.9" x2="799.8" y2="573.9"/>
	<line class="st2" x1="634" y1="604.1" x2="799.8" y2="604.1"/>
	<line class="st2" x1="634" y1="634.3" x2="799.8" y2="634.3"/>
	<line class="st2" x1="634" y1="664.5" x2="799.8" y2="664.5"/>
	<line class="st2" x1="634" y1="694.7" x2="799.8" y2="694.7"/>
	<line class="st2" x1="634" y1="724.9" x2="799.8" y2="724.9"/>
	<line class="st2" x1="634" y1="755" x2="799.8" y2="755"/>
	<line class="st2" x1="634" y1="785.2" x2="799.8" y2="785.2"/>
	<line class="st2" x1="634" y1="815.4" x2="799.8" y2="815.4"/>
	<line class="st2" x1="634" y1="845.6" x2="799.8" y2="845.6"/>
	<line class="st2" x1="634" y1="875.8" x2="799.8" y2="875.8"/>
	<line class="st2" x1="634" y1="906" x2="799.8" y2="906"/>
	<line class="st2" x1="634" y1="936.2" x2="799.8" y2="936.2"/>
	<line class="st2" x1="634" y1="966.3" x2="799.8" y2="966.3"/>
	<line class="st2" x1="634" y1="996.5" x2="799.8" y2="996.5"/>
	<line class="st2" x1="634" y1="1026.7" x2="799.8" y2="1026.7"/>
	<line class="st2" x1="634" y1="1056.9" x2="799.8" y2="1056.9"/>
	<line class="st2" x1="634" y1="1087.1" x2="799.8" y2="1087.1"/>
	<line class="st2" x1="634" y1="1117.3" x2="799.8" y2="1117.3"/>
	<line class="st2" x1="634" y1="1147.4" x2="799.8" y2="1147.4"/>
	<line class="st2" x1="634" y1="1177.6" x2="799.8" y2="1177.6"/>
	<line class="st2" x1="634" y1="1207.8" x2="799.8" y2="1207.8"/>
	<line class="st2" x1="634" y1="1238" x2="799.8" y2="1238"/>
	<line class="st2" x1="634" y1="1268.2" x2="799.8" y2="1268.2"/>
	<line class="st2" x1="634" y1="1298.4" x2="799.8" y2="1298.4"/>
	<line class="st2" x1="634" y1="1328.6" x2="799.8" y2="1328.6"/>
	<line class="st2" x1="634" y1="1358.7" x2="799.8" y2="1358.7"/>
	<line class="st2" x1="634" y1="1388.9" x2="799.8" y2="1388.9"/>
</g>
<g>
	<line class="st2" x1="0" y1="0.4" x2="165.8" y2="0.4"/>
	<line class="st2" x1="0" y1="30.6" x2="165.8" y2="30.6"/>
	<line class="st2" x1="0" y1="60.8" x2="165.8" y2="60.8"/>
	<line class="st2" x1="0" y1="91" x2="165.8" y2="91"/>
	<line class="st2" x1="0" y1="121.2" x2="165.8" y2="121.2"/>
	<line class="st2" x1="0" y1="151.3" x2="165.8" y2="151.3"/>
	<line class="st2" x1="0" y1="181.5" x2="165.8" y2="181.5"/>
	<line class="st2" x1="0" y1="211.7" x2="165.8" y2="211.7"/>
	<line class="st2" x1="0" y1="241.9" x2="165.8" y2="241.9"/>
	<line class="st2" x1="0" y1="272.1" x2="165.8" y2="272.1"/>
	<line class="st2" x1="0" y1="302.3" x2="165.8" y2="302.3"/>
	<line class="st2" x1="0" y1="332.5" x2="165.8" y2="332.5"/>
	<line class="st2" x1="0" y1="362.6" x2="165.8" y2="362.6"/>
	<line class="st2" x1="0" y1="392.8" x2="165.8" y2="392.8"/>
	<line class="st2" x1="0" y1="423" x2="165.8" y2="423"/>
	<line class="st2" x1="0" y1="453.2" x2="165.8" y2="453.2"/>
	<line class="st2" x1="0" y1="483.4" x2="165.8" y2="483.4"/>
	<line class="st2" x1="0" y1="513.6" x2="165.8" y2="513.6"/>
	<line class="st2" x1="0" y1="543.8" x2="165.8" y2="543.8"/>
	<line class="st2" x1="0" y1="573.9" x2="165.8" y2="573.9"/>
	<line class="st2" x1="0" y1="604.1" x2="165.8" y2="604.1"/>
	<line class="st2" x1="0" y1="634.3" x2="165.8" y2="634.3"/>
	<line class="st2" x1="0" y1="664.5" x2="165.8" y2="664.5"/>
	<line class="st2" x1="0" y1="694.7" x2="165.8" y2="694.7"/>
	<line class="st2" x1="0" y1="724.9" x2="165.8" y2="724.9"/>
	<line class="st2" x1="0" y1="755" x2="165.8" y2="755"/>
	<line class="st2" x1="0" y1="785.2" x2="165.8" y2="785.2"/>
	<line class="st2" x1="0" y1="815.4" x2="165.8" y2="815.4"/>
	<line class="st2" x1="0" y1="845.6" x2="165.8" y2="845.6"/>
	<line class="st2" x1="0" y1="875.8" x2="165.8" y2="875.8"/>
	<line class="st2" x1="0" y1="906" x2="165.8" y2="906"/>
	<line class="st2" x1="0" y1="936.2" x2="165.8" y2="936.2"/>
	<line class="st2" x1="0" y1="966.3" x2="165.8" y2="966.3"/>
	<line class="st2" x1="0" y1="996.5" x2="165.8" y2="996.5"/>
	<line class="st2" x1="0" y1="1026.7" x2="165.8" y2="1026.7"/>
	<line class="st2" x1="0" y1="1056.9" x2="165.8" y2="1056.9"/>
	<line class="st2" x1="0" y1="1087.1" x2="165.8" y2="1087.1"/>
	<line class="st2" x1="0" y1="1117.3" x2="165.8" y2="1117.3"/>
	<line class="st2" x1="0" y1="1147.4" x2="165.8" y2="1147.4"/>
	<line class="st2" x1="0" y1="1177.6" x2="165.8" y2="1177.6"/>
	<line class="st2" x1="0" y1="1207.8" x2="165.8" y2="1207.8"/>
	<line class="st2" x1="0" y1="1238" x2="165.8" y2="1238"/>
	<line class="st2" x1="0" y1="1268.2" x2="165.8" y2="1268.2"/>
	<line class="st2" x1="0" y1="1298.4" x2="165.8" y2="1298.4"/>
	<line class="st2" x1="0" y1="1328.6" x2="165.8" y2="1328.6"/>
	<line class="st2" x1="0" y1="1358.7" x2="165.8" y2="1358.7"/>
	<line class="st2" x1="0" y1="1388.9" x2="165.8" y2="1388.9"/>
</g>
<text transform="matrix(1 0 0 1 698.79 29.3699)" class="st3 st4">00:05</text>
<text transform="matrix(1 0 0 1 698.79 59.3699)" class="st3 st4">00:10</text>
<text transform="matrix(1 0 0 1 698.79 89.3699)" class="st3 st4">00:15</text>
<text transform="matrix(1 0 0 1 698.79 119.3699)" class="st3 st4">00:20</text>
<text transform="matrix(1 0 0 1 698.79 149.3699)" class="st3 st4">00:25</text>
<text transform="matrix(1 0 0 1 698.79 179.3699)" class="st3 st4">00:30</text>
<text transform="matrix(1 0 0 1 698.79 209.3699)" class="st3 st4">00:35</text>
<text transform="matrix(1 0 0 1 698.79 239.3699)" class="st3 st4">00:40</text>
<text transform="matrix(1 0 0 1 698.79 269.3699)" class="st3 st4">00:45</text>
<text transform="matrix(1 0 0 1 698.79 299.3699)" class="st3 st4">00:50</text>
<text transform="matrix(1 0 0 1 698.79 329.3699)" class="st3 st4">00:55</text>
<text transform="matrix(1 0 0 1 698.79 360.37)" class="st3 st4">01:00</text>
<text transform="matrix(1 0 0 1 698.79 391.37)" class="st3 st4">01:05</text>
<text transform="matrix(1 0 0 1 698.79 421.37)" class="st3 st4">01:10</text>
<text transform="matrix(1 0 0 1 698.79 451.37)" class="st3 st4">01:15</text>
<text transform="matrix(1 0 0 1 698.79 481.37)" class="st3 st4">01:20</text>
<text transform="matrix(1 0 0 1 698.79 511.37)" class="st3 st4">01:25</text>
<text transform="matrix(1 0 0 1 698.79 542.37)" class="st3 st4">01:30</text>
<text transform="matrix(1 0 0 1 698.79 572.37)" class="st3 st4">01:35</text>
<text transform="matrix(1 0 0 1 698.79 602.37)" class="st3 st4">01:40</text>
<text transform="matrix(1 0 0 1 698.79 632.37)" class="st3 st4">01:45</text>
<text transform="matrix(1 0 0 1 698.79 662.37)" class="st3 st4">01:50</text>
<text transform="matrix(1 0 0 1 698.79 692.37)" class="st3 st4">01:55</text>
<text transform="matrix(1 0 0 1 698.79 723.37)" class="st3 st4">02:00</text>
<text transform="matrix(1 0 0 1 698.79 752.37)" class="st3 st4">02:05</text>
<text transform="matrix(1 0 0 1 698.79 782.37)" class="st3 st4">02:10</text>
<text transform="matrix(1 0 0 1 698.79 812.37)" class="st3 st4">02:15</text>
<text transform="matrix(1 0 0 1 698.79 842.37)" class="st3 st4">02:20</text>
<text transform="matrix(1 0 0 1 698.79 872.37)" class="st3 st4">02:25</text>
<text transform="matrix(1 0 0 1 698.79 903.37)" class="st3 st4">02:30</text>
<text transform="matrix(1 0 0 1 698.79 933.37)" class="st3 st4">02:35</text>
<text transform="matrix(1 0 0 1 698.79 963.37)" class="st3 st4">02:40</text>
<text transform="matrix(1 0 0 1 698.79 993.37)" class="st3 st4">02:45</text>
<text transform="matrix(1 0 0 1 698.79 1023.37)" class="st3 st4">02:50</text>
<text transform="matrix(1 0 0 1 698.79 1053.37)" class="st3 st4">02:55</text>
<text transform="matrix(1 0 0 1 698.79 1084.37)" class="st3 st4">03:00</text>
<g>
	<line class="st2" x1="633.5" y1="1086.5" x2="799.3" y2="1086.5"/>
	<line class="st2" x1="633.5" y1="1116.7" x2="799.3" y2="1116.7"/>
	<line class="st2" x1="633.5" y1="1146.9" x2="799.3" y2="1146.9"/>
	<line class="st2" x1="633.5" y1="1177.1" x2="799.3" y2="1177.1"/>
	<line class="st2" x1="633.5" y1="1207.2" x2="799.3" y2="1207.2"/>
	<line class="st2" x1="633.5" y1="1237.4" x2="799.3" y2="1237.4"/>
	<line class="st2" x1="633.5" y1="1267.6" x2="799.3" y2="1267.6"/>
	<line class="st2" x1="633.5" y1="1297.8" x2="799.3" y2="1297.8"/>
	<line class="st2" x1="633.5" y1="1328" x2="799.3" y2="1328"/>
	<line class="st2" x1="633.5" y1="1358.2" x2="799.3" y2="1358.2"/>
	<line class="st2" x1="633.5" y1="1388.3" x2="799.3" y2="1388.3"/>
	<line class="st2" x1="633.5" y1="1418.5" x2="799.3" y2="1418.5"/>
	<line class="st2" x1="633.5" y1="1448.7" x2="799.3" y2="1448.7"/>
	<line class="st2" x1="633.5" y1="1478.9" x2="799.3" y2="1478.9"/>
	<line class="st2" x1="633.5" y1="1509.1" x2="799.3" y2="1509.1"/>
	<line class="st2" x1="633.5" y1="1539.3" x2="799.3" y2="1539.3"/>
	<line class="st2" x1="633.5" y1="1569.5" x2="799.3" y2="1569.5"/>
	<line class="st2" x1="633.5" y1="1599.6" x2="799.3" y2="1599.6"/>
	<line class="st2" x1="633.5" y1="1629.8" x2="799.3" y2="1629.8"/>
	<line class="st2" x1="633.5" y1="1660" x2="799.3" y2="1660"/>
	<line class="st2" x1="633.5" y1="1690.2" x2="799.3" y2="1690.2"/>
	<line class="st2" x1="633.5" y1="1720.4" x2="799.3" y2="1720.4"/>
	<line class="st2" x1="633.5" y1="1750.6" x2="799.3" y2="1750.6"/>
	<line class="st2" x1="633.5" y1="1780.8" x2="799.3" y2="1780.8"/>
	<line class="st2" x1="633.5" y1="1810.9" x2="799.3" y2="1810.9"/>
	<line class="st2" x1="633.5" y1="1841.1" x2="799.3" y2="1841.1"/>
	<line class="st2" x1="633.5" y1="1871.3" x2="799.3" y2="1871.3"/>
	<line class="st2" x1="633.5" y1="1901.5" x2="799.3" y2="1901.5"/>
	<line class="st2" x1="633.5" y1="1931.7" x2="799.3" y2="1931.7"/>
	<line class="st2" x1="633.5" y1="1961.9" x2="799.3" y2="1961.9"/>
	<line class="st2" x1="633.5" y1="1992" x2="799.3" y2="1992"/>
	<line class="st2" x1="633.5" y1="2022.2" x2="799.3" y2="2022.2"/>
	<line class="st2" x1="633.5" y1="2052.4" x2="799.3" y2="2052.4"/>
	<line class="st2" x1="633.5" y1="2082.6" x2="799.3" y2="2082.6"/>
	<line class="st2" x1="633.5" y1="2112.8" x2="799.3" y2="2112.8"/>
	<line class="st2" x1="633.5" y1="2143" x2="799.3" y2="2143"/>
	<line class="st2" x1="633.5" y1="2173.1" x2="799.3" y2="2173.1"/>
</g>
<line class="st2" x1="-0.5" y1="1416.5" x2="165.3" y2="1416.5"/>
<line class="st2" x1="-0.5" y1="1446.7" x2="165.3" y2="1446.7"/>
<line class="st2" x1="-0.5" y1="1476.9" x2="165.3" y2="1476.9"/>
<line class="st2" x1="-0.5" y1="1507.1" x2="165.3" y2="1507.1"/>
<line class="st2" x1="-0.5" y1="1537.3" x2="165.3" y2="1537.3"/>
<line class="st2" x1="-0.5" y1="1567.5" x2="165.3" y2="1567.5"/>
<line class="st2" x1="-0.5" y1="1597.6" x2="165.3" y2="1597.6"/>
<line class="st2" x1="-0.5" y1="1627.8" x2="165.3" y2="1627.8"/>
<line class="st2" x1="-0.5" y1="1658" x2="165.3" y2="1658"/>
<line class="st2" x1="-0.5" y1="1688.2" x2="165.3" y2="1688.2"/>
<line class="st2" x1="-0.5" y1="1718.4" x2="165.3" y2="1718.4"/>
<line class="st2" x1="-0.5" y1="1748.6" x2="165.3" y2="1748.6"/>
<line class="st2" x1="-0.5" y1="1778.8" x2="165.3" y2="1778.8"/>
<line class="st2" x1="-0.5" y1="1808.9" x2="165.3" y2="1808.9"/>
<line class="st2" x1="-0.5" y1="1839.1" x2="165.3" y2="1839.1"/>
<line class="st2" x1="-0.5" y1="1869.3" x2="165.3" y2="1869.3"/>
<line class="st2" x1="-0.5" y1="1899.5" x2="165.3" y2="1899.5"/>
<line class="st2" x1="-0.5" y1="1929.7" x2="165.3" y2="1929.7"/>
<line class="st2" x1="-0.5" y1="1959.9" x2="165.3" y2="1959.9"/>
<line class="st2" x1="-0.5" y1="1990" x2="165.3" y2="1990"/>
<line class="st2" x1="-0.5" y1="2020.2" x2="165.3" y2="2020.2"/>
<line class="st2" x1="-0.5" y1="2050.4" x2="165.3" y2="2050.4"/>
<line class="st2" x1="-0.5" y1="2080.6" x2="165.3" y2="2080.6"/>
<line class="st2" x1="-0.5" y1="2110.8" x2="165.3" y2="2110.8"/>
<line class="st2" x1="-0.5" y1="2141" x2="165.3" y2="2141"/>
<line class="st2" x1="-0.5" y1="2171.1" x2="165.3" y2="2171.1"/>
<text transform="matrix(1 0 0 1 698.3 1115.45)" class="st3 st4">00:05</text>
<text transform="matrix(1 0 0 1 698.3 1145.45)" class="st3 st4">00:10</text>
<text transform="matrix(1 0 0 1 698.3 1175.45)" class="st3 st4">00:15</text>
<text transform="matrix(1 0 0 1 698.3 1205.45)" class="st3 st4">00:20</text>
<text transform="matrix(1 0 0 1 698.3 1235.45)" class="st3 st4">00:25</text>
<text transform="matrix(1 0 0 1 698.3 1265.45)" class="st3 st4">00:30</text>
<text transform="matrix(1 0 0 1 698.3 1295.45)" class="st3 st4">00:35</text>
<text transform="matrix(1 0 0 1 698.3 1325.45)" class="st3 st4">00:40</text>
<text transform="matrix(1 0 0 1 698.3 1355.45)" class="st3 st4">00:45</text>
<text transform="matrix(1 0 0 1 698.3 1385.45)" class="st3 st4">00:50</text>
<text transform="matrix(1 0 0 1 698.3 1415.45)" class="st3 st4">00:55</text>
<text transform="matrix(1 0 0 1 698.3 1446.45)" class="st3 st4">01:00</text>
<text transform="matrix(1 0 0 1 698.3 1477.45)" class="st3 st4">01:05</text>
<text transform="matrix(1 0 0 1 698.3 1507.45)" class="st3 st4">01:10</text>
<text transform="matrix(1 0 0 1 698.3 1537.45)" class="st3 st4">01:15</text>
<text transform="matrix(1 0 0 1 698.3 1567.45)" class="st3 st4">01:20</text>
<text transform="matrix(1 0 0 1 698.3 1597.45)" class="st3 st4">01:25</text>
<text transform="matrix(1 0 0 1 698.3 1628.45)" class="st3 st4">01:30</text>
<text transform="matrix(1 0 0 1 698.3 1658.45)" class="st3 st4">01:35</text>
<text transform="matrix(1 0 0 1 698.3 1688.45)" class="st3 st4">01:40</text>
<text transform="matrix(1 0 0 1 698.3 1718.45)" class="st3 st4">01:45</text>
<text transform="matrix(1 0 0 1 698.3 1748.45)" class="st3 st4">01:50</text>
<text transform="matrix(1 0 0 1 698.3 1778.45)" class="st3 st4">01:55</text>
<text transform="matrix(1 0 0 1 698.3 1809.45)" class="st3 st4">02:00</text>
<text transform="matrix(1 0 0 1 698.3 1838.45)" class="st3 st4">02:05</text>
<text transform="matrix(1 0 0 1 698.3 1868.45)" class="st3 st4">02:10</text>
<text transform="matrix(1 0 0 1 698.3 1898.45)" class="st3 st4">02:15</text>
<text transform="matrix(1 0 0 1 698.3 1928.45)" class="st3 st4">02:20</text>
<text transform="matrix(1 0 0 1 698.3 1958.45)" class="st3 st4">02:25</text>
<text transform="matrix(1 0 0 1 698.3 1989.45)" class="st3 st4">02:30</text>
<text transform="matrix(1 0 0 1 698.3 2019.45)" class="st3 st4">02:35</text>
<text transform="matrix(1 0 0 1 698.3 2049.45)" class="st3 st4">02:40</text>
<text transform="matrix(1 0 0 1 698.3 2079.45)" class="st3 st4">02:45</text>
<text transform="matrix(1 0 0 1 698.3 2109.45)" class="st3 st4">02:50</text>
<text transform="matrix(1 0 0 1 698.3 2139.45)" class="st3 st4">02:55</text>
<text transform="matrix(1 0 0 1 698.3 2170.45)" class="st3 st4">03:00</text>

<rect x="0.5" y="2173.1" class="st6" width="800" height="1265"/>
<g>
	<line class="st2" x1="633.5" y1="2173.1" x2="799.3" y2="2173.1"/>
	<line class="st2" x1="633.5" y1="2203.3" x2="799.3" y2="2203.3"/>
	<line class="st2" x1="633.5" y1="2233.5" x2="799.3" y2="2233.5"/>
	<line class="st2" x1="633.5" y1="2263.7" x2="799.3" y2="2263.7"/>
	<line class="st2" x1="633.5" y1="2293.9" x2="799.3" y2="2293.9"/>
	<line class="st2" x1="633.5" y1="2324.1" x2="799.3" y2="2324.1"/>
	<line class="st2" x1="633.5" y1="2354.3" x2="799.3" y2="2354.3"/>
	<line class="st2" x1="633.5" y1="2384.4" x2="799.3" y2="2384.4"/>
	<line class="st2" x1="633.5" y1="2414.6" x2="799.3" y2="2414.6"/>
	<line class="st2" x1="633.5" y1="2444.8" x2="799.3" y2="2444.8"/>
	<line class="st2" x1="633.5" y1="2475" x2="799.3" y2="2475"/>
	<line class="st2" x1="633.5" y1="2505.2" x2="799.3" y2="2505.2"/>
	<line class="st2" x1="633.5" y1="2535.4" x2="799.3" y2="2535.4"/>
	<line class="st2" x1="633.5" y1="2565.5" x2="799.3" y2="2565.5"/>
	<line class="st2" x1="633.5" y1="2595.7" x2="799.3" y2="2595.7"/>
	<line class="st2" x1="633.5" y1="2625.9" x2="799.3" y2="2625.9"/>
	<line class="st2" x1="633.5" y1="2656.1" x2="799.3" y2="2656.1"/>
	<line class="st2" x1="633.5" y1="2686.3" x2="799.3" y2="2686.3"/>
	<line class="st2" x1="633.5" y1="2716.5" x2="799.3" y2="2716.5"/>
	<line class="st2" x1="633.5" y1="2746.7" x2="799.3" y2="2746.7"/>
	<line class="st2" x1="633.5" y1="2776.8" x2="799.3" y2="2776.8"/>
	<line class="st2" x1="633.5" y1="2807" x2="799.3" y2="2807"/>
	<line class="st2" x1="633.5" y1="2837.2" x2="799.3" y2="2837.2"/>
	<line class="st2" x1="633.5" y1="2867.4" x2="799.3" y2="2867.4"/>
	<line class="st2" x1="633.5" y1="2897.6" x2="799.3" y2="2897.6"/>
	<line class="st2" x1="633.5" y1="2927.8" x2="799.3" y2="2927.8"/>
	<line class="st2" x1="633.5" y1="2957.9" x2="799.3" y2="2957.9"/>
	<line class="st2" x1="633.5" y1="2988.1" x2="799.3" y2="2988.1"/>
	<line class="st2" x1="633.5" y1="3018.3" x2="799.3" y2="3018.3"/>
	<line class="st2" x1="633.5" y1="3048.5" x2="799.3" y2="3048.5"/>
	<line class="st2" x1="633.5" y1="3078.7" x2="799.3" y2="3078.7"/>
	<line class="st2" x1="633.5" y1="3108.9" x2="799.3" y2="3108.9"/>
	<line class="st2" x1="633.5" y1="3139.1" x2="799.3" y2="3139.1"/>
	<line class="st2" x1="633.5" y1="3169.2" x2="799.3" y2="3169.2"/>
	<line class="st2" x1="633.5" y1="3199.4" x2="799.3" y2="3199.4"/>
	<line class="st2" x1="633.5" y1="3229.6" x2="799.3" y2="3229.6"/>
	<line class="st2" x1="633.5" y1="3259.8" x2="799.3" y2="3259.8"/>
</g>
<g>
	<line class="st2" x1="-0.5" y1="2171.1" x2="165.3" y2="2171.1"/>
	<line class="st2" x1="-0.5" y1="2201.3" x2="165.3" y2="2201.3"/>
	<line class="st2" x1="-0.5" y1="2231.5" x2="165.3" y2="2231.5"/>
	<line class="st2" x1="-0.5" y1="2261.7" x2="165.3" y2="2261.7"/>
	<line class="st2" x1="-0.5" y1="2291.9" x2="165.3" y2="2291.9"/>
	<line class="st2" x1="-0.5" y1="2322.1" x2="165.3" y2="2322.1"/>
	<line class="st2" x1="-0.5" y1="2352.3" x2="165.3" y2="2352.3"/>
	<line class="st2" x1="-0.5" y1="2382.4" x2="165.3" y2="2382.4"/>
	<line class="st2" x1="-0.5" y1="2412.6" x2="165.3" y2="2412.6"/>
	<line class="st2" x1="-0.5" y1="2442.8" x2="165.3" y2="2442.8"/>
	<line class="st2" x1="-0.5" y1="2473" x2="165.3" y2="2473"/>
	<line class="st2" x1="-0.5" y1="2503.2" x2="165.3" y2="2503.2"/>
	<line class="st2" x1="-0.5" y1="2533.4" x2="165.3" y2="2533.4"/>
	<line class="st2" x1="-0.5" y1="2563.5" x2="165.3" y2="2563.5"/>
	<line class="st2" x1="-0.5" y1="2593.7" x2="165.3" y2="2593.7"/>
	<line class="st2" x1="-0.5" y1="2623.9" x2="165.3" y2="2623.9"/>
	<line class="st2" x1="-0.5" y1="2654.1" x2="165.3" y2="2654.1"/>
	<line class="st2" x1="-0.5" y1="2684.3" x2="165.3" y2="2684.3"/>
	<line class="st2" x1="-0.5" y1="2714.5" x2="165.3" y2="2714.5"/>
	<line class="st2" x1="-0.5" y1="2744.7" x2="165.3" y2="2744.7"/>
	<line class="st2" x1="-0.5" y1="2774.8" x2="165.3" y2="2774.8"/>
	<line class="st2" x1="-0.5" y1="2805" x2="165.3" y2="2805"/>
	<line class="st2" x1="-0.5" y1="2835.2" x2="165.3" y2="2835.2"/>
	<line class="st2" x1="-0.5" y1="2865.4" x2="165.3" y2="2865.4"/>
	<line class="st2" x1="-0.5" y1="2895.6" x2="165.3" y2="2895.6"/>
	<line class="st2" x1="-0.5" y1="2925.8" x2="165.3" y2="2925.8"/>
	<line class="st2" x1="-0.5" y1="2955.9" x2="165.3" y2="2955.9"/>
	<line class="st2" x1="-0.5" y1="2986.1" x2="165.3" y2="2986.1"/>
	<line class="st2" x1="-0.5" y1="3016.3" x2="165.3" y2="3016.3"/>
	<line class="st2" x1="-0.5" y1="3046.5" x2="165.3" y2="3046.5"/>
	<line class="st2" x1="-0.5" y1="3076.7" x2="165.3" y2="3076.7"/>
	<line class="st2" x1="-0.5" y1="3106.9" x2="165.3" y2="3106.9"/>
	<line class="st2" x1="-0.5" y1="3137.1" x2="165.3" y2="3137.1"/>
	<line class="st2" x1="-0.5" y1="3167.2" x2="165.3" y2="3167.2"/>
	<line class="st2" x1="-0.5" y1="3197.4" x2="165.3" y2="3197.4"/>
	<line class="st2" x1="-0.5" y1="3227.6" x2="165.3" y2="3227.6"/>
	<line class="st2" x1="-0.5" y1="3257.8" x2="165.3" y2="3257.8"/>
</g>
<text transform="matrix(1 0 0 1 698.3 2202.0999)" class="st3 st4">00:05</text>
<text transform="matrix(1 0 0 1 698.3 2232.0999)" class="st3 st4">00:10</text>
<text transform="matrix(1 0 0 1 698.3 2262.0999)" class="st3 st4">00:15</text>
<text transform="matrix(1 0 0 1 698.3 2292.0999)" class="st3 st4">00:20</text>
<text transform="matrix(1 0 0 1 698.3 2322.0999)" class="st3 st4">00:25</text>
<text transform="matrix(1 0 0 1 698.3 2352.0999)" class="st3 st4">00:30</text>
<text transform="matrix(1 0 0 1 698.3 2382.0999)" class="st3 st4">00:35</text>
<text transform="matrix(1 0 0 1 698.3 2412.0999)" class="st3 st4">00:40</text>
<text transform="matrix(1 0 0 1 698.3 2442.0999)" class="st3 st4">00:45</text>
<text transform="matrix(1 0 0 1 698.3 2472.0999)" class="st3 st4">00:50</text>
<text transform="matrix(1 0 0 1 698.3 2502.0999)" class="st3 st4">00:55</text>
<text transform="matrix(1 0 0 1 698.3 2533.0999)" class="st3 st4">01:00</text>
<text transform="matrix(1 0 0 1 698.3 2564.0999)" class="st3 st4">01:05</text>
<text transform="matrix(1 0 0 1 698.3 2594.0999)" class="st3 st4">01:10</text>
<text transform="matrix(1 0 0 1 698.3 2624.0999)" class="st3 st4">01:15</text>
<text transform="matrix(1 0 0 1 698.3 2654.0999)" class="st3 st4">01:20</text>
<text transform="matrix(1 0 0 1 698.3 2684.0999)" class="st3 st4">01:25</text>
<text transform="matrix(1 0 0 1 698.3 2715.0999)" class="st3 st4">01:30</text>
<text transform="matrix(1 0 0 1 698.3 2745.0999)" class="st3 st4">01:35</text>
<text transform="matrix(1 0 0 1 698.3 2775.0999)" class="st3 st4">01:40</text>
<text transform="matrix(1 0 0 1 698.3 2805.0999)" class="st3 st4">01:45</text>
<text transform="matrix(1 0 0 1 698.3 2835.0999)" class="st3 st4">01:50</text>
<text transform="matrix(1 0 0 1 698.3 2865.0999)" class="st3 st4">01:55</text>
<text transform="matrix(1 0 0 1 698.3 2896.0999)" class="st3 st4">02:00</text>
<text transform="matrix(1 0 0 1 698.3 2925.0999)" class="st3 st4">02:05</text>
<text transform="matrix(1 0 0 1 698.3 2955.0999)" class="st3 st4">02:10</text>
<text transform="matrix(1 0 0 1 698.3 2985.0999)" class="st3 st4">02:15</text>
<text transform="matrix(1 0 0 1 698.3 3015.0999)" class="st3 st4">02:20</text>
<text transform="matrix(1 0 0 1 698.3 3045.0999)" class="st3 st4">02:25</text>
<text transform="matrix(1 0 0 1 698.3 3076.0999)" class="st3 st4">02:30</text>
<text transform="matrix(1 0 0 1 698.3 3106.0999)" class="st3 st4">02:35</text>
<text transform="matrix(1 0 0 1 698.3 3136.0999)" class="st3 st4">02:40</text>
<text transform="matrix(1 0 0 1 698.3 3166.0999)" class="st3 st4">02:45</text>
<text transform="matrix(1 0 0 1 698.3 3196.0999)" class="st3 st4">02:50</text>
<text transform="matrix(1 0 0 1 698.3 3226.0999)" class="st3 st4">02:55</text>
<text transform="matrix(1 0 0 1 698.3 3257.0999)" class="st3 st4">03:00</text>
<line class="st2" x1="633.5" y1="3290.2" x2="799.3" y2="3290.2"/>
<line class="st2" x1="633.5" y1="3320.4" x2="799.3" y2="3320.4"/>
<line class="st2" x1="633.5" y1="3350.6" x2="799.3" y2="3350.6"/>
<line class="st2" x1="633.5" y1="3380.8" x2="799.3" y2="3380.8"/>
<line class="st2" x1="633.5" y1="3410.9" x2="799.3" y2="3410.9"/>
<line class="st2" x1="-0.5" y1="3257.8" x2="165.3" y2="3257.8"/>
<line class="st2" x1="-0.5" y1="3288" x2="165.3" y2="3288"/>
<line class="st2" x1="-0.5" y1="3318.2" x2="165.3" y2="3318.2"/>
<line class="st2" x1="-0.5" y1="3348.4" x2="165.3" y2="3348.4"/>
<line class="st2" x1="-0.5" y1="3378.6" x2="165.3" y2="3378.6"/>
<line class="st2" x1="-0.5" y1="3408.8" x2="165.3" y2="3408.8"/>
<text transform="matrix(1 0 0 1 698.3 3288.7861)" class="st3 st4">03:05</text>
<text transform="matrix(1 0 0 1 698.3 3318.7861)" class="st3 st4">03:10</text>
<text transform="matrix(1 0 0 1 698.3 3348.7861)" class="st3 st4">03:15</text>
<text transform="matrix(1 0 0 1 698.3 3378.7859)" class="st3 st4">03:20</text>
<text transform="matrix(1 0 0 1 698.3 3408.7859)" class="st3 st4">03:25</text>
</svg>
