<svg id="Layer_1" data-name="Layer 1" xmlns="http://www.w3.org/2000/svg" viewBox="0 0 322 322"><defs><style>.cls-1{fill:#8e4949;}.cls-2{fill:#ce2424;}.cls-3{fill:#39b314;}.cls-4{fill:#36a013;}.cls-5{fill:#da2205;opacity:0.66;}.cls-6{fill:#2e7012;}.cls-7{fill:#2d2d2d;}.cls-8{fill:#622b17;}.cls-9{fill:#fff;}.cls-10{fill:#515151;}</style></defs><title>Artboard 12</title><circle class="cls-1" cx="161" cy="161" r="155"/><path class="cls-2" d="M161,12A149,149,0,0,1,266.36,266.36,149,149,0,0,1,55.64,55.64,148,148,0,0,1,161,12m0-12A161,161,0,1,0,322,161,161,161,0,0,0,161,0Z"/><path class="cls-3" d="M204.45,211.39H96.11a12,12,0,0,0-12,12v70a12,12,0,0,0,12,12L154,316l50.45-4.61a12,12,0,0,0,12-12v-76A12,12,0,0,0,204.45,211.39Z"/><rect class="cls-4" x="98.65" y="92" width="116.16" height="124.23" rx="24.07"/><rect class="cls-3" x="97.04" y="92" width="111.32" height="122.61" rx="24.07"/><rect class="cls-5" x="121.24" y="187.19" width="75.83" height="9.68" rx="3"/><path class="cls-6" d="M136.44,121h0a3.46,3.46,0,0,0,1.86,0h0a3.4,3.4,0,0,0,2.32-4.37l-3.25-.83-3.24.83A3.39,3.39,0,0,0,136.44,121Z"/><path class="cls-6" d="M176.78,121h0a3.46,3.46,0,0,0,1.86,0h0a3.39,3.39,0,0,0,2.31-4.37l-3.24-.83-3.25.83A3.4,3.4,0,0,0,176.78,121Z"/><ellipse class="cls-7" cx="155.12" cy="139.59" rx="1.61" ry="4.03"/><ellipse class="cls-7" cx="159.96" cy="139.59" rx="1.61" ry="4.03"/><polygon class="cls-8" points="102 209 127.69 229.13 150.28 253.33 180.93 230.75 197.07 211.39 222 211 230.95 242.04 223 305 150 315 84 299 68 263.01 80 209 102 209"/><ellipse class="cls-4" cx="138.41" cy="111.95" rx="1.62" ry="10.48" transform="translate(-17.3 198.24) rotate(-67.96)"/><ellipse class="cls-4" cx="178.74" cy="111.95" rx="10.48" ry="1.62" transform="translate(-28.95 75.25) rotate(-22.04)"/><path class="cls-2" d="M161,12A149,149,0,0,1,266.36,266.36,149,149,0,0,1,55.64,55.64,148,148,0,0,1,161,12m0-12A161,161,0,1,0,322,161,161,161,0,0,0,161,0Z"/><polygon class="cls-9" points="141 192 147 177 149 186 149 192 141 192"/><polygon class="cls-9" points="150 192 153.75 182.63 155 188.25 155 192 150 192"/><polygon class="cls-9" points="165 192 161.25 182.63 160 188.25 160 192 165 192"/><polygon class="cls-9" points="174 192 168 177 166 186 166 192 174 192"/><polygon class="cls-10" points="128.57 251.79 141.27 191.28 112.13 178.58 93.46 158.41 97.94 210.7 128.57 251.79"/><polygon class="cls-10" points="175.63 195.76 195.8 251.79 221.94 201.74 218.21 153.93 202.52 182.32 175.63 195.76"/><polygon class="cls-10" points="185.34 187.55 160.69 174.1 141.27 177.84 128.58 185.75 93.46 158.41 97.94 99.4 128.57 70.27 160.69 65.79 198.78 83.72 216 103 218.21 153.93 185.34 187.55"/><path class="cls-9" d="M125.79,156.22l9.7,7.62,9.7,4.16,15.93-1.85a18.65,18.65,0,0,0,16.23-15.37l1.1-6.34L185,113.12a4.07,4.07,0,0,0-.86-3.45l-.13-.16a4.1,4.1,0,0,0-5-1l-1,.48a4.07,4.07,0,0,0-2.15,2.69l-4.18,17.27a.4.4,0,0,1-.78-.11l1.19-35.24a4.08,4.08,0,0,0-1.19-3l-.7-.7a4.08,4.08,0,0,0-4.92-.65l-.16.09a4.08,4.08,0,0,0-2.06,3.4l-1.3,36.51,0,0h0a2.51,2.51,0,0,1-3.45-2.33v-36a4.09,4.09,0,0,0-1.42-3.1l-.8-.69a4.09,4.09,0,0,0-5.28,0h0a4.09,4.09,0,0,0-1.47,3.21L150,128.1a1.76,1.76,0,0,1-1.76,1.79h0a1.76,1.76,0,0,1-1.76-1.67L144.58,92a4.09,4.09,0,0,0-1.19-2.67l-1.55-1.54a4.08,4.08,0,0,0-5.78,0l-.73.73a4.09,4.09,0,0,0-1.2,3l.67,37.07-1.94,3.87a7,7,0,0,1-2.39,2.7l-1.29.87a1.59,1.59,0,0,1-2.19-.44l-8.82-13.24-1.79.3a3.84,3.84,0,0,0-3.06,2.69l-.45,1.49a8.06,8.06,0,0,0,.59,6.05Z"/><polygon points="190 122 189 115 167 125 190 122"/><polygon points="122 122 123 115 145 125 122 122"/></svg>